<svg data-name="Layer 1" xmlns="http://www.w3.org/2000/svg" xmlns:xlink="http://www.w3.org/1999/xlink" viewBox="0 0 780.3 1047.4"><defs><linearGradient id="d" x1="-361.53" y1="519.43" x2="145.87" y2="1150.98" xlink:href="#b"/><linearGradient id="b" x1="-385.33" y1="538.55" x2="122.07" y2="1170.11" gradientTransform="matrix(1 0 0 -1 0 1048)" gradientUnits="userSpaceOnUse"><stop offset="0" stop-color="#1d1d1b"/><stop offset=".79" stop-color="#f9f9f9"/><stop offset="1" stop-color="#fff"/></linearGradient><linearGradient id="e" x1="-337.58" y1="500.19" x2="169.82" y2="1131.74" xlink:href="#b"/><linearGradient id="f" x1="-313.39" y1="480.75" x2="194.02" y2="1112.3" xlink:href="#b"/><linearGradient id="g" x1="-187.15" y1="379.33" x2="320.25" y2="1010.88" xlink:href="#b"/><linearGradient id="h" x1="-161.35" y1="358.6" x2="346.05" y2="990.16" xlink:href="#b"/><linearGradient id="i" x1="-135.5" y1="337.83" x2="371.91" y2="969.38" xlink:href="#b"/><linearGradient id="j" x1="-109.69" y1="317.1" x2="397.71" y2="948.65" xlink:href="#b"/><linearGradient id="k" x1="-288.88" y1="461.06" x2="218.53" y2="1092.61" xlink:href="#b"/><linearGradient id="l" x1="-264" y1="441.07" x2="243.4" y2="1072.63" xlink:href="#b"/><linearGradient id="m" x1="-238.64" y1="420.69" x2="268.77" y2="1052.25" xlink:href="#b"/><linearGradient id="n" x1="-212.95" y1="400.06" x2="294.45" y2="1031.61" xlink:href="#b"/><linearGradient id="o" x1="-83.86" y1="296.34" x2="423.55" y2="927.89" xlink:href="#b"/><linearGradient id="p" x1="-57.93" y1="275.51" x2="449.47" y2="907.07" xlink:href="#b"/><linearGradient id="q" x1="-20.59" y1="245.51" x2="486.81" y2="877.07" xlink:href="#b"/><linearGradient id="r" x1="38.62" y1="197.93" x2="546.03" y2="829.49" xlink:href="#b"/><linearGradient id="s" x1="59.49" y1="181.17" x2="566.89" y2="812.73" xlink:href="#b"/><linearGradient id="t" x1="80.72" y1="164.12" x2="588.12" y2="795.67" xlink:href="#b"/><linearGradient id="u" x1="101.96" y1="147.05" x2="609.36" y2="778.61" xlink:href="#b"/><linearGradient id="v" x1="123.22" y1="129.97" x2="630.63" y2="761.52" xlink:href="#b"/><linearGradient id="w" x1="144.85" y1="112.59" x2="652.26" y2="744.14" xlink:href="#b"/><linearGradient id="x" x1="165.02" y1="96.39" x2="672.42" y2="727.95" xlink:href="#b"/><linearGradient id="y" x1="186.44" y1="79.18" x2="693.84" y2="710.74" xlink:href="#b"/><linearGradient id="z" x1="208.12" y1="61.76" x2="715.53" y2="693.31" xlink:href="#b"/><linearGradient id="A" x1="231.67" y1="42.84" x2="739.08" y2="674.39" xlink:href="#b"/><linearGradient id="B" x1="253.36" y1="25.41" x2="760.77" y2="656.97" xlink:href="#b"/><linearGradient id="C" x1="275.29" y1="7.79" x2="782.8" y2="639.47" xlink:href="#b"/><linearGradient id="D" x1="297.29" y1="-9.88" x2="804.7" y2="621.67" xlink:href="#b"/><linearGradient id="E" x1="319.36" y1="-27.62" x2="826.77" y2="603.94" xlink:href="#b"/><linearGradient id="F" x1="341.64" y1="-45.52" x2="849.05" y2="586.04" xlink:href="#b"/><linearGradient id="G" x1="364.6" y1="-63.96" x2="872" y2="567.6" xlink:href="#b"/><linearGradient id="H" x1="387.13" y1="-82.06" x2="894.53" y2="549.5" xlink:href="#b"/><linearGradient id="I" x1="409.57" y1="-100.09" x2="916.98" y2="531.46" xlink:href="#b"/><linearGradient id="J" x1="433.78" y1="-119.54" x2="941.18" y2="512.02" xlink:href="#b"/><linearGradient id="K" x1="456.47" y1="-137.77" x2="963.88" y2="493.78" xlink:href="#b"/><linearGradient id="L" x1="479.56" y1="-156.33" x2="986.97" y2="475.23" xlink:href="#b"/><linearGradient id="M" x1="503.44" y1="-175.51" x2="1010.84" y2="456.05" xlink:href="#b"/><linearGradient id="N" x1="528.28" y1="-195.47" x2="1035.69" y2="436.09" xlink:href="#b"/><linearGradient id="O" x1="554.16" y1="-216.26" x2="1061.57" y2="415.3" xlink:href="#b"/><linearGradient id="P" x1="579.59" y1="-236.69" x2="1087" y2="394.87" xlink:href="#b"/><linearGradient id="aC" x1="735.8" y1="44.3" x2="780" y2="44.3" gradientTransform="matrix(1 0 0 -1 0 1048)" xlink:href="#a"/><linearGradient id="aD" x1="768.52" y1="12.75" x2="780" y2="12.75" gradientTransform="matrix(1 0 0 -1 0 1048)" xlink:href="#a"/><linearGradient id="a" y1="1031.35" x2="33.4" y2="1031.35" gradientTransform="matrix(1 0 0 -1 .3 1048.2)" gradientUnits="userSpaceOnUse"><stop offset="0" stop-color="#f76b1c"/><stop offset="1" stop-color="#fad961"/></linearGradient><linearGradient id="R" y1="1009.45" x2="77.1" y2="1009.45" gradientTransform="matrix(1 0 0 -1 0 1048)" xlink:href="#a"/><linearGradient id="S" y1="987.2" x2="120.8" y2="987.2" gradientTransform="matrix(1 0 0 -1 0 1048)" xlink:href="#a"/><linearGradient id="T" y1="964.6" x2="164.6" y2="964.6" gradientTransform="matrix(1 0 0 -1 0 1048)" xlink:href="#a"/><linearGradient id="U" x1="-.1" y1="839.9" x2="386" y2="839.9" gradientTransform="matrix(1 0 0 -1 0 1048)" xlink:href="#a"/><linearGradient id="V" x1="-.3" y1="811.3" x2="430.6" y2="811.3" gradientTransform="matrix(1 0 0 -1 0 1048)" xlink:href="#a"/><linearGradient id="W" y1="780.65" x2="475.3" y2="780.65" gradientTransform="matrix(1 0 0 -1 0 1048)" xlink:href="#a"/><linearGradient id="X" y1="747.45" x2="520" y2="747.45" gradientTransform="matrix(1 0 0 -1 0 1048)" xlink:href="#a"/><linearGradient id="Y" y1="941.5" x2="208.7" y2="941.5" gradientTransform="matrix(1 0 0 -1 0 1048)" xlink:href="#a"/><linearGradient id="Z" y1="917.65" x2="252.8" y2="917.65" gradientTransform="matrix(1 0 0 -1 0 1048)" xlink:href="#a"/><linearGradient id="aa" y1="892.85" x2="297" y2="892.85" gradientTransform="matrix(1 0 0 -1 0 1048)" xlink:href="#a"/><linearGradient id="ab" x1="-.1" y1="867.15" x2="341.5" y2="867.15" gradientTransform="matrix(1 0 0 -1 0 1048)" xlink:href="#a"/><linearGradient id="ac" y1="710.85" x2="564.9" y2="710.85" gradientTransform="matrix(1 0 0 -1 0 1048)" xlink:href="#a"/><linearGradient id="ad" y1="668.75" x2="609.9" y2="668.75" gradientTransform="matrix(1 0 0 -1 0 1048)" xlink:href="#a"/><linearGradient id="ae" x1="-.2" y1="616.9" x2="655" y2="616.9" gradientTransform="matrix(1 0 0 -1 0 1048)" xlink:href="#a"/><linearGradient id="af" x1=".1" y1="524.5" x2="703.5" y2="524.5" gradientTransform="matrix(1 0 0 -1 0 1048)" xlink:href="#a"/><linearGradient id="ag" x1="28.4" y1="524.6" x2="748.8" y2="524.6" gradientTransform="matrix(1 0 0 -1 0 1048)" xlink:href="#a"/><linearGradient id="ah" x1="57.2" y1="523.65" x2="780" y2="523.65" gradientTransform="matrix(1 0 0 -1 0 1048)" xlink:href="#a"/><linearGradient id="ai" x1="86.4" y1="503.8" x2="780" y2="503.8" gradientTransform="matrix(1 0 0 -1 0 1048)" xlink:href="#a"/><linearGradient id="aj" x1="116" y1="483.95" x2="780" y2="483.95" gradientTransform="matrix(1 0 0 -1 0 1048)" xlink:href="#a"/><linearGradient id="ak" x1="146" y1="463.75" x2="780" y2="463.75" gradientTransform="matrix(1 0 0 -1 0 1048)" xlink:href="#a"/><linearGradient id="al" x1="174.1" y1="444.85" x2="780" y2="444.85" gradientTransform="matrix(1 0 0 -1 0 1048)" xlink:href="#a"/><linearGradient id="am" x1="204.4" y1="424.65" x2="780" y2="424.65" gradientTransform="matrix(1 0 0 -1 0 1048)" xlink:href="#a"/><linearGradient id="an" x1="235.1" y1="404.2" x2="780" y2="404.2" gradientTransform="matrix(1 0 0 -1 0 1048)" xlink:href="#a"/><linearGradient id="ao" x1="268.7" y1="382.1" x2="780" y2="382.1" gradientTransform="matrix(1 0 0 -1 0 1048)" xlink:href="#a"/><linearGradient id="ap" x1="300" y1="361.5" x2="780" y2="361.5" gradientTransform="matrix(1 0 0 -1 0 1048)" xlink:href="#a"/><linearGradient id="aq" x1="331.4" y1="340.5" x2="780" y2="340.5" gradientTransform="matrix(1 0 0 -1 0 1048)" xlink:href="#a"/><linearGradient id="ar" x1="363.3" y1="319.45" x2="780" y2="319.45" gradientTransform="matrix(1 0 0 -1 0 1048)" xlink:href="#a"/><linearGradient id="as" x1="395.3" y1="298.05" x2="780" y2="298.05" gradientTransform="matrix(1 0 0 -1 0 1048)" xlink:href="#a"/><linearGradient id="at" x1="428" y1="276.4" x2="780" y2="276.4" gradientTransform="matrix(1 0 0 -1 0 1048)" xlink:href="#a"/><linearGradient id="au" x1="461.6" y1="253.6" x2="780" y2="253.6" gradientTransform="matrix(1 0 0 -1 0 1048)" xlink:href="#a"/><linearGradient id="av" x1="494.7" y1="231.25" x2="780" y2="231.25" gradientTransform="matrix(1 0 0 -1 0 1048)" xlink:href="#a"/><linearGradient id="aw" x1="527.9" y1="208.25" x2="780" y2="208.25" gradientTransform="matrix(1 0 0 -1 0 1048)" xlink:href="#a"/><linearGradient id="ax" x1="564" y1="182.65" x2="780" y2="182.65" gradientTransform="matrix(1 0 0 -1 0 1048)" xlink:href="#a"/><linearGradient id="ay" x1="597.8" y1="157.75" x2="780" y2="157.75" gradientTransform="matrix(1 0 0 -1 0 1048)" xlink:href="#a"/><linearGradient id="az" x1="632" y1="131.8" x2="780" y2="131.8" gradientTransform="matrix(1 0 0 -1 0 1048)" xlink:href="#a"/><linearGradient id="aA" x1="666.32" y1="104.5" x2="780" y2="104.5" gradientTransform="matrix(1 0 0 -1 0 1048)" xlink:href="#a"/><linearGradient id="aB" x1="700.9" y1="75.4" x2="780" y2="75.4" gradientTransform="matrix(1 0 0 -1 0 1048)" xlink:href="#a"/><filter id="c" filterUnits="userSpaceOnUse" color-interpolation-filters="sRGB"><feColorMatrix values="-1 0 0 0 1 0 -1 0 0 1 0 0 -1 0 1 0 0 0 1 0"/></filter><mask id="Q" x="0" y="0" width="780.3" height="1047.4" maskUnits="userSpaceOnUse"><g filter="url(#c)"><path fill="url(#b)" d="M33.4 0L10.2 23.1 0 33.3V18.1l2.7-2.6L18.5 0h14.9z" transform="translate(.3 .2)"/><path d="M77.1 0L63.9 12.8 38.2 38.3 25.4 51.1C21.1 55.3 17 59.7 12.7 64L0 77.1V61.2l4.9-5c4.3-4.3 8.5-8.6 12.8-12.9l13-12.7 26-25.3L62.2 0z" fill="url(#d)" transform="translate(.3 .2)"/><path d="M120.8 0c-.9.9-1.9 1.8-2.8 2.8L92 28 66.3 53.5 53.5 66.3c-4.3 4.2-8.4 8.6-12.7 12.9l-25.3 25.9-3.2 3.2-3.1 3.3-6.2 6.6-3 3.4v-16.7l1.1-1.1 3.1-3.3 3.2-3.2L33 71.5c4.3-4.3 8.5-8.6 12.8-12.9l13-12.7 25.9-25.4L106.1 0z" fill="url(#e)" transform="translate(.3 .2)"/><path d="M164.6 0L146 18l-26 25.2-25.7 25.5-12.8 12.8c-4.3 4.2-8.4 8.6-12.7 12.9l-25.3 25.9-3.1 3.2-3.1 3.3-6.2 6.6-12.4 13.2-12.4 13.3c-2.1 2.2-4.1 4.4-6.1 6.7l-.2.2v-17.3c3.4-3.6 6.8-7.2 10.3-10.8l12.6-13.1 6.3-6.6 3.1-3.3 3.2-3.2L61 86.7c4.3-4.3 8.5-8.6 12.8-12.9l13-12.7 25.9-25.4L139 10.6c3.7-3.5 7.4-7.1 11.1-10.6z" fill="url(#f)" transform="translate(.3 .2)"/><path d="M386 0c-7 6.4-13.9 12.8-20.8 19.3C347.4 35.7 330 52.4 312.4 69c-8.8 8.3-17.4 16.7-26.1 25.1l-26 25.2-25.7 25.6-12.8 12.8c-4.3 4.2-8.4 8.6-12.7 12.9l-25.3 25.9-3.2 3.2-3.1 3.3-6.2 6.6-12.3 13.2-12.4 13.2c-2.1 2.2-4.1 4.4-6.1 6.7l-6.1 6.7-24.2 26.9-23.6 27.4-5.9 6.8-5.7 7-11.4 14-11.4 14-11 14.3c-7.3 9.6-14.7 19.1-21.7 28.9L9 403.4l-5.3 7.3c-1.3 1.8-2.5 3.6-3.8 5.5v-20.9c45.3-64.1 96.3-124.2 150.6-180.5l18.8-19.7 3.1-3.3 3.2-3.2 25.6-25.8c4.3-4.3 8.5-8.6 12.8-12.9l13-12.7 25.9-25.4 26.2-25.1c8.7-8.3 17.5-16.7 26.3-25 17.7-16.5 35.3-33.1 53.2-49.4L372.1 0z" fill="url(#g)" transform="translate(.3 .2)"/><path d="M430.6 0c-12.5 11.4-24.9 22.9-37.4 34.5-17.8 16.4-35.2 33.1-52.8 49.7-8.8 8.3-17.4 16.7-26.1 25.1l-26 25.2-25.7 25.5-12.8 12.8c-4.3 4.2-8.4 8.6-12.7 12.9l-25.3 25.9-3.2 3.2-3.1 3.3-6.2 6.6L187 238l-12.4 13.2c-2.1 2.2-4.1 4.4-6.1 6.7l-6.1 6.7-24.2 26.9-23.6 27.4-5.9 6.8-5.7 7-11.4 14-11.4 14-11 14.3c-7.3 9.6-14.7 19-21.7 28.9l-10.6 14.6-5.3 7.3c-1.8 2.4-3.4 5-5.1 7.4l-10.1 15-5.1 7.5c-1.7 2.5-3.4 5-5 7.5l-6.6 10.2v-21.6C51.9 372 112.8 298.3 178.6 230l12.6-13.1 6.3-6.6 3.1-3.3 3.2-3.2 25.6-25.8c4.3-4.3 8.5-8.6 12.8-12.9l13-12.7 25.9-25.4 26.2-25.1c8.7-8.4 17.5-16.8 26.3-25 17.7-16.5 35.3-33.1 53.2-49.4 10-9.2 20.1-18.4 30.2-27.5z" fill="url(#h)" transform="translate(.3 .2)"/><path d="M475.3 0c-18.1 16.5-36.1 33-54 49.7C403.5 66 386 82.8 368.5 99.4c-8.8 8.3-17.4 16.7-26.1 25.1l-26 25.2-25.7 25.6-12.8 12.7c-4.3 4.2-8.4 8.6-12.7 12.9l-25.3 25.9-3.2 3.2-3.1 3.3-6.2 6.6-12.4 13.2-12.4 13.2c-2.1 2.2-4.1 4.4-6.1 6.7l-6.1 6.7-24.2 26.9-23.5 27.4-5.9 6.8-5.7 7-11.4 14-11.4 14-11 14.3c-7.3 9.6-14.7 19.1-21.7 28.9L65 433.7l-5.3 7.3c-1.8 2.4-3.4 5-5.1 7.4l-10.1 15-5.1 7.5c-1.7 2.5-3.4 5-5 7.5C22.6 496.9 11 515.7 0 534.7v-22.2q12-20.4 24.8-40.3c52.6-81.8 114.7-157.2 181.9-227l18.8-19.7 3.1-3.3 3.2-3.2 25.6-25.8c4.3-4.3 8.5-8.6 12.8-12.9l13-12.7 25.9-25.4 26.2-25.1c8.7-8.4 17.5-16.8 26.3-25C379.4 75.6 397 59 414.9 42.8q23.4-21.45 47-42.8z" fill="url(#i)" transform="translate(.3 .2)"/><path d="M520 0q-35.55 32.25-70.7 64.9c-17.8 16.4-35.2 33.1-52.8 49.7-8.8 8.3-17.4 16.7-26.1 25.1l-26 25.2-25.7 25.6-12.8 12.8c-4.3 4.2-8.4 8.6-12.7 12.9L268 242.1l-3.2 3.2-3.1 3.3-6.2 6.6-12.4 13.2-12.4 13.2c-2.1 2.2-4.1 4.4-6.1 6.7l-6.1 6.7-24.2 26.9-23.6 27.4-5.9 6.8-5.7 7-11.4 14-11.4 14-11 14.3c-7.3 9.6-14.7 19-21.7 28.9L93.2 449l-5.3 7.3c-1.8 2.4-3.4 5-5.1 7.4l-10.1 15-5.1 7.5c-1.7 2.5-3.4 5-5 7.5A1222 1222 0 000 601.1V578c16.3-31 34-61.2 52.8-90.6 52.6-81.8 114.7-157.2 181.9-227l12.6-13.1 6.3-6.6 3.1-3.3 3.2-3.2 25.6-25.8c4.3-4.3 8.5-8.6 12.8-12.9l13-12.7 25.9-25.4 26.2-25.1c8.7-8.4 17.5-16.8 26.3-25C407.4 90.8 425 74.2 442.9 58q31.8-29.1 63.9-58z" fill="url(#j)" transform="translate(.3 .2)"/><path d="M208.7 0c-2.8 2.7-5.7 5.4-8.5 8.1-8.8 8.3-17.4 16.7-26.1 25.1l-26 25.2L122.4 84l-12.8 12.8c-4.3 4.2-8.4 8.6-12.7 12.9l-25.3 25.9-3.2 3.2-3.1 3.3-6.2 6.6-12.4 13.2-12.4 13.2c-2.1 2.2-4.1 4.4-6.1 6.7l-6.1 6.7L0 213.1V195q18.9-20.85 38.3-41.1l12.6-13.1 6.3-6.6 3.1-3.3 3.2-3.2 25.6-25.8c4.3-4.3 8.5-8.6 12.8-12.9l13-12.7 25.9-25.4L167 25.8c8.7-8.4 17.5-16.8 26.3-25l.9-.9h14.5z" fill="url(#k)" transform="translate(.3 .2)"/><path d="M252.8 0c-8.2 7.8-16.4 15.5-24.6 23.3-8.8 8.3-17.4 16.7-26.1 25.1l-26 25.2-25.7 25.6-12.8 12.8c-4.3 4.2-8.4 8.6-12.7 12.9l-25.3 25.9-3.2 3.2-3.1 3.3-6.2 6.6-12.4 13.2-12.4 13.2c-2.1 2.2-4.1 4.4-6.1 6.7l-6.1 6.7L26 230.5 2.5 257.9 0 260.8V242q32.1-37.5 66.4-72.9L79 156l6.3-6.6 3.1-3.3 3.2-3.2 25.6-25.8c4.3-4.3 8.5-8.6 12.8-12.9l13-12.7 25.9-25.4L195.1 41c8.8-8.4 17.5-16.8 26.3-25 5.7-5.3 11.5-10.7 17.2-16.1h14.2z" fill="url(#l)" transform="translate(.3 .2)"/><path d="M297 0c-13.7 12.8-27.2 25.7-40.8 38.5-8.8 8.3-17.4 16.7-26.1 25.1l-26 25.2-25.7 25.6-12.8 12.8c-4.3 4.2-8.4 8.6-12.7 12.9L127.7 166l-3.2 3.2-3.1 3.3-6.2 6.6-12.4 13.2-12.4 13.2c-2.1 2.2-4.1 4.4-6.1 6.7l-6.1 6.7L54 245.8l-23.6 27.4-5.9 6.8-5.7 7-11.3 14-7.5 9.3v-19.4c29.9-36.9 61.6-72.4 94.5-106.6l12.6-13.1 6.3-6.6 3.1-3.3 3.2-3.2 25.6-25.8c4.3-4.3 8.5-8.6 12.8-12.9l13-12.7L197 81.3l26.2-25.1c8.7-8.4 17.5-16.7 26.3-25C260.7 20.9 271.8 10.4 283 0z" fill="url(#m)" transform="translate(.3 .2)"/><path d="M341.5 0c-1.5 1.3-2.9 2.7-4.4 4-17.8 16.4-35.2 33.1-52.8 49.7-8.8 8.3-17.4 16.7-26.1 25.1l-26 25.2-25.7 25.6-12.8 12.8c-4.3 4.2-8.4 8.6-12.7 12.9l-25.3 25.9-3.2 3.2-3.1 3.3-6.2 6.6-12.4 13.2-12.4 13.2c-2.1 2.2-4.1 4.4-6.1 6.7l-6.1 6.7L82.1 261l-23.6 27.4-5.9 6.8-5.7 7-11.4 14-11.4 14-11 14.3C8.7 350.3 4.2 356-.1 361.8v-20.1a1597 1597 0 01122.5-142.3l12.6-13.1 6.3-6.6 3.1-3.3 3.2-3.2 25.6-25.8c4.3-4.3 8.5-8.6 12.8-12.9l13-12.7 26-25.3 26.2-25.1c8.8-8.4 17.5-16.8 26.3-25 16.6-15.5 33.2-31.2 50-46.5h14z" fill="url(#n)" transform="translate(.3 .2)"/><path d="M564.9 0q-44.1 39.75-87.6 80.1c-17.8 16.4-35.2 33.1-52.8 49.7-8.8 8.3-17.4 16.7-26.1 25.1l-26 25.2-25.7 25.6-12.7 12.7c-4.3 4.2-8.4 8.6-12.7 12.9l-25.3 26-3.1 3.2-3.1 3.3-6.2 6.6-12.4 13.2-12.4 13.2c-2.1 2.2-4.1 4.4-6.1 6.7l-6.1 6.7-24.2 26.8-23.6 27.4-5.9 6.8-5.7 7-11.4 14-11.4 14-11 14.3c-7.3 9.6-14.7 19.1-21.7 28.9L121.1 464l-5.3 7.3c-1.8 2.4-3.4 5-5.1 7.4l-10.1 15-5.1 7.5c-1.7 2.5-3.4 5-5 7.5A1203.8 1203.8 0 0018.7 634C12.4 647.6 6 661 0 674.5v-24.1c3.1-6.9 6.4-13.8 9.6-20.7a1218.56 1218.56 0 0171.2-127.2c52.6-81.8 114.7-157.2 181.9-227l12.6-13.1 6.3-6.6 3.1-3.3 3.2-3.2 25.6-25.8c4.3-4.3 8.5-8.6 12.8-12.9l13-12.7 25.9-25.4 26.2-25.1c8.7-8.4 17.5-16.8 26.3-25 17.7-16.5 35.3-33.1 53.2-49.4q40.2-36.9 80.9-73.2h13.1z" fill="url(#o)" transform="translate(.3 .2)"/><path d="M609.9 0q-52.65 47.25-104.5 95.3c-17.8 16.4-35.2 33.1-52.8 49.7-8.8 8.3-17.4 16.7-26.1 25.1l-26 25.2-25.7 25.6-12.8 12.7c-4.3 4.2-8.4 8.6-12.7 12.9L324 272.4l-3.2 3.2-3.1 3.3-6.2 6.6-12.4 13.2-12.3 13.3c-2.1 2.2-4.1 4.4-6.1 6.7l-6.1 6.7-24.2 26.9-23.6 27.4-5.9 6.8-5.7 7-11.4 14-11.4 14-11 14.3c-7.3 9.6-14.7 19-21.7 28.9l-10.6 14.6-5.3 7.3c-1.8 2.4-3.4 5-5.1 7.4l-10.1 15-5.1 7.5c-1.7 2.5-3.4 5-5 7.5A1263.78 1263.78 0 0047 649.5 1108.18 1108.18 0 000 758.7v-25.6c11.2-29.9 23.9-59.4 37.7-88.2a1208.43 1208.43 0 0171.2-127.2c52.6-81.8 114.7-157.2 181.9-227l12.6-13.1 6.3-6.6 3.1-3.3 3.2-3.2 25.6-25.8c4.3-4.3 8.5-8.6 12.8-12.9l13-12.7 25.9-25.4 26.2-25.1c8.7-8.4 17.5-16.8 26.3-25 17.7-16.5 35.3-33.1 53.2-49.4q48.6-44.7 98-88.4h12.9z" fill="url(#p)" transform="translate(.3 .2)"/><path d="M655 0q-61.35 54.6-121.5 110.5c-17.8 16.4-35.2 33.1-52.8 49.7-8.8 8.3-17.4 16.7-26.1 25.1l-26 25.2-25.7 25.6-12.8 12.8c-4.3 4.2-8.4 8.6-12.7 12.9l-25.3 25.9-3.1 3.3-3.1 3.3-6.2 6.6-12.4 13.1-12.4 13.2c-2.1 2.2-4.1 4.4-6.1 6.7l-6.1 6.7-24.2 26.9-23.6 27.4-5.9 6.8-5.7 7-11.4 14-11.4 14-11 14.4c-7.3 9.6-14.7 19-21.7 28.9l-10.6 14.6-5.3 7.3c-1.8 2.4-3.4 5-5.1 7.4l-10.1 15-5.1 7.5c-1.7 2.5-3.4 5-5 7.5a1203.8 1203.8 0 00-71.8 125.3A1110.37 1110.37 0 0019.2 798c-1 2.9-2 5.7-2.9 8.6l-2.7 8.6c-1.8 5.7-3.7 11.5-5.4 17.3-2.8 10-5.8 19.9-8.4 29.9v-28c.4-1.4.7-2.7 1.1-4.1 1.6-5.8 3.4-11.7 5.2-17.5l2.6-8.7c.8-2.9 1.9-5.8 2.8-8.7a1074.88 1074.88 0 0154.1-135.3 1218.56 1218.56 0 0171.2-127.2c52.6-81.8 114.7-157.2 181.9-227l12.6-13.1 6.3-6.6 3.1-3.3 3.2-3.2 25.6-25.8c4.3-4.3 8.5-8.6 12.8-12.9l13-12.7 25.9-25.4 26.2-25.1c8.8-8.4 17.5-16.8 26.3-25 17.7-16.5 35.3-33.1 53.2-49.4q57-52.35 115.2-103.6H655z" fill="url(#q)" transform="translate(.3 .2)"/><path d="M703.5 0q-70.65 62.7-139.9 126.9c-17.8 16.4-35.2 33.1-52.8 49.7-8.8 8.3-17.4 16.7-26.1 25.1l-26 25.2-25.7 25.5-12.8 12.8c-4.3 4.2-8.4 8.6-12.7 12.9L382.2 304l-3.2 3.2-3.1 3.3-6.2 6.6-12.4 13.2-12.3 13.3c-2.1 2.2-4.1 4.4-6.1 6.7l-6.1 6.7-24.2 26.9-23.6 27.4-5.9 6.8-5.7 7-11.4 14-11.4 14-11 14.3c-7.3 9.6-14.7 19.1-21.7 28.9L207.5 511l-5.3 7.3c-1.8 2.4-3.4 5-5.1 7.4l-10.1 15-5.1 7.5c-1.7 2.5-3.4 5-5 7.5A1203.8 1203.8 0 00105.1 681a1110.37 1110.37 0 00-55.6 133.4c-1 2.9-2 5.7-2.9 8.6l-2.7 8.6c-1.8 5.7-3.7 11.5-5.4 17.3-3.3 11.6-6.8 23.2-9.7 34.9-3.2 11.6-5.7 23.4-8.5 35.2l-3.6 17.7c-.6 2.9-1.1 5.9-1.7 8.9l-1.6 8.9q-6.3 35.7-9.2 71.8-.45 4.5-.6 9l-.6 9c0 .9-.1 1.8-.1 2.7H.1v-2.8l.3-9.1c.1-3 .2-6.1.4-9.1 1.2-24.3 3.8-48.4 7.4-72.5l1.4-9c.5-3 .9-6 1.5-9l3.3-17.9c2.5-11.9 4.8-23.8 7.8-35.6 2.7-11.9 6-23.6 9.1-35.3 1.6-5.8 3.4-11.7 5.1-17.5l2.6-8.7c.8-2.9 1.9-5.8 2.8-8.7a1074.88 1074.88 0 0154.1-135.3 1218.56 1218.56 0 0171.2-127.2c52.6-81.8 114.7-157.2 181.9-227l18.8-19.7 3.1-3.3 3.2-3.2 25.6-25.8c4.3-4.3 8.5-8.6 12.8-12.9l13-12.7 25.9-25.4 26.2-25.1c8.7-8.4 17.5-16.8 26.3-25 17.7-16.5 35.3-33.1 53.2-49.4Q623.55 59.2 691 0z" fill="url(#r)" transform="translate(.3 .2)"/><path d="M748.8 0q-79.35 70.05-157.1 142.1c-17.8 16.4-35.2 33.1-52.8 49.7-8.8 8.3-17.4 16.7-26.1 25.1l-26 25.2-25.7 25.6-12.8 12.8c-4.3 4.2-8.4 8.6-12.7 12.9l-25.3 25.9-3.2 3.2-3.1 3.3-6.2 6.6-12.4 13.2-12.4 13.2c-2.1 2.2-4.1 4.4-6.1 6.7l-6.1 6.7-24.1 26.8-23.6 27.4-5.9 6.8-5.7 7-11.4 14-11.4 14-11 14.3c-7.3 9.6-14.7 19-21.7 28.9L235.4 526l-5.3 7.3c-1.8 2.4-3.4 5-5.1 7.4l-10.1 15-5.1 7.5c-1.7 2.5-3.4 5-5 7.5A1203.8 1203.8 0 00133 696a1110.37 1110.37 0 00-55.6 133.4c-1 2.8-2 5.7-2.9 8.6l-2.7 8.6c-1.8 5.8-3.7 11.5-5.4 17.3-3.3 11.6-6.8 23.2-9.7 34.9-3.2 11.6-5.7 23.4-8.5 35.2l-3.6 17.7c-.6 2.9-1.1 5.9-1.7 8.9l-1.6 8.9q-6.3 35.7-9.2 71.8c-.2 1.8-.3 3.7-.4 5.5h-3.3c.1-1.9.1-3.8.3-5.7 1.2-24.3 3.8-48.4 7.4-72.5l1.4-9c.5-3 .9-6 1.5-9l3.3-17.9c2.5-11.9 4.8-23.8 7.8-35.6 2.7-11.9 6-23.6 9.1-35.3 1.6-5.9 3.4-11.7 5.1-17.5l2.6-8.7c.8-2.9 1.9-5.8 2.8-8.7a1074.88 1074.88 0 0154.1-135.3A1208.43 1208.43 0 01195 564.4c52.6-81.8 114.7-157.2 181.9-227l12.6-13.1 6.3-6.6 3.1-3.3 3.2-3.2 25.6-25.8c4.3-4.3 8.5-8.6 12.8-12.9l13-12.7 25.9-25.4 26.2-25.1c8.7-8.4 17.5-16.8 26.3-25 17.7-16.5 35.3-33.1 53.2-49.4Q660.1 66.65 736.4 0z" fill="url(#s)" transform="translate(.3 .2)"/><path d="M780 1.7v10.7q-81 71.4-160.3 144.9c-17.8 16.4-35.2 33.1-52.8 49.7-8.8 8.3-17.4 16.7-26.1 25.1l-26 25.2-25.7 25.6-12.8 12.8c-4.3 4.2-8.4 8.6-12.7 12.9l-25.3 25.9-3.1 3.2-3.1 3.3-6.2 6.6-12.4 13.2-12.4 13.2c-2.1 2.2-4.1 4.4-6.1 6.7l-6.1 6.7-24.2 26.9-23.6 27.4-5.9 6.8-5.7 7-11.4 14-11.4 14-11 14.4c-7.3 9.6-14.7 19-21.7 28.9l-10.6 14.6-5.3 7.3c-1.8 2.4-3.4 5-5.1 7.4l-10.1 15-5.1 7.5c-1.7 2.5-3.4 5-5 7.5A1203.8 1203.8 0 00161 711.4a1110.37 1110.37 0 00-55.6 133.4c-1 2.9-2 5.7-2.9 8.6l-2.7 8.6c-1.8 5.7-3.7 11.5-5.4 17.3-3.3 11.6-6.8 23.2-9.7 34.9-3.2 11.6-5.7 23.4-8.5 35.2l-3.6 17.7c-.6 2.9-1.1 5.9-1.7 8.9l-1.6 8.9q-5.4 30.9-8.4 62.1h-3.7q2.1-31.65 6.8-63l1.4-9c.5-3 .9-6 1.5-9l3.3-17.9c2.5-11.9 4.8-23.8 7.8-35.6 2.7-11.9 6-23.6 9.1-35.3 1.6-5.9 3.4-11.7 5.1-17.5l2.6-8.7c.8-2.9 1.9-5.8 2.8-8.7A1115.51 1115.51 0 01152 706.9a1218.56 1218.56 0 0171.2-127.2c52.6-81.8 114.7-157.2 181.9-227l12.6-13.1 6.3-6.6 3.1-3.3 3.2-3.2 25.6-25.8c4.3-4.3 8.5-8.6 12.8-12.9l13-12.7 25.9-25.4 26.2-25.1c8.7-8.4 17.5-16.8 26.3-25 17.7-16.5 35.3-33.1 53.2-49.4Q695.65 74.9 780 1.7z" fill="url(#t)" transform="translate(.3 .2)"/><path d="M780 41.4v11.1q-66.75 59.25-132.2 120c-17.8 16.4-35.2 33.1-52.8 49.7-8.8 8.3-17.4 16.7-26.1 25.1l-26 25.2-25.7 25.5-12.8 12.8c-4.3 4.2-8.4 8.6-12.7 12.9l-25.3 25.9-3.2 3.2-3.1 3.3-6.2 6.6-12.3 13.3-12.4 13.2c-2.1 2.2-4.1 4.4-6.1 6.7l-6.1 6.7-24.2 26.9-23.6 27.4-5.9 6.8-5.7 7-11.4 14-11.4 14-11 14.3c-7.3 9.6-14.7 19-21.7 28.9l-10.6 14.7-5.3 7.3c-1.8 2.4-3.4 5-5.1 7.4l-10.1 15-5.1 7.5c-1.7 2.5-3.4 5-5 7.5a1203.8 1203.8 0 00-71.8 125.3A1103.62 1103.62 0 00133.5 860c-1 2.8-2 5.7-2.9 8.6l-2.7 8.6c-1.8 5.8-3.7 11.5-5.4 17.3-3.3 11.6-6.8 23.1-9.7 34.9-3.2 11.6-5.7 23.4-8.5 35.2l-3.6 17.7c-.6 2.9-1.1 5.9-1.7 8.9l-1.6 8.9c-2.7 15.6-5 31.2-6.8 46.9h-4.2c1.4-16 3.3-31.9 5.7-47.8l1.4-9c.5-3 .9-6 1.5-9l3.3-17.9c2.5-11.9 4.8-23.8 7.8-35.6 2.7-11.9 6-23.6 9.1-35.3 1.6-5.9 3.4-11.7 5.1-17.5l2.6-8.7c.8-2.9 1.9-5.8 2.8-8.7A1114.94 1114.94 0 01180 722.1a1208.43 1208.43 0 0171.2-127.2c52.6-81.8 114.7-157.2 181.9-227l12.6-13.1 6.3-6.6 3.1-3.3 3.2-3.2 25.6-25.8c4.3-4.3 8.5-8.6 12.8-12.9l13-12.7 25.9-25.4 26.2-25.1c8.7-8.4 17.5-16.8 26.3-25 17.7-16.5 35.3-33.1 53.2-49.4Q710 102.7 780 41.4z" fill="url(#u)" transform="translate(.3 .2)"/><path d="M780 81.3v11.4q-52.5 47.1-104.2 95c-17.8 16.4-35.2 33.1-52.8 49.7-8.8 8.3-17.4 16.7-26.1 25.1l-26 25.2-25.7 25.6-12.8 12.7c-4.3 4.2-8.4 8.6-12.7 12.9l-25.3 25.9-3.2 3.2-3.1 3.3-6.1 6.7-12.4 13.2-12.4 13.2c-2.1 2.2-4.1 4.4-6.1 6.7l-6.1 6.7-24.2 26.9-23.5 27.3-5.9 6.8-5.7 7-11.4 14-11.4 14-11 14.3c-7.3 9.6-14.7 19-21.7 28.9l-10.6 14.6-5.3 7.3c-1.8 2.4-3.4 5-5.1 7.4l-10.1 15-5.1 7.5c-1.7 2.5-3.4 5-5 7.5a1203.8 1203.8 0 00-71.8 125.3A1110.37 1110.37 0 00161.6 875c-1 2.8-2 5.7-2.9 8.6l-2.7 8.6c-1.8 5.7-3.7 11.5-5.4 17.3-3.3 11.6-6.8 23.2-9.7 34.9-3.2 11.6-5.7 23.4-8.5 35.2l-3.6 17.7c-.6 2.9-1.1 5.9-1.7 8.9l-1.6 8.9c-1.9 10.5-3.5 21.1-4.9 31.7H116c1.2-10.9 2.6-21.7 4.2-32.6l1.4-9c.5-3 .9-6 1.5-9l3.3-17.9c2.5-11.9 4.8-23.8 7.8-35.6 2.7-11.9 6-23.6 9.1-35.3 1.6-5.9 3.4-11.7 5.2-17.5l2.6-8.7c.8-2.9 1.9-5.8 2.8-8.7A1074.88 1074.88 0 01208 737.2 1208.43 1208.43 0 01279.2 610c52.6-81.8 114.7-157.2 181.9-227l12.6-13.1 6.3-6.6 3.1-3.3 3.2-3.2 25.6-25.8c4.3-4.3 8.5-8.6 12.8-12.9l13-12.7 25.9-25.4 26.2-25.1c8.7-8.4 17.5-16.8 26.3-25 17.7-16.5 35.3-33.1 53.2-49.4q55.05-49.95 110.7-99.2z" fill="url(#v)" transform="translate(.3 .2)"/><path d="M780 121.4v11.8q-38.25 34.65-76.1 69.8c-17.8 16.4-35.2 33.1-52.8 49.7-8.8 8.3-17.4 16.7-26.1 25.1L599 303l-25.7 25.6-12.8 12.8c-4.3 4.2-8.4 8.6-12.7 12.9l-25.3 25.9-3.2 3.2-3.1 3.3-6.2 6.6-12.4 13.2-12.4 13.2c-2.1 2.2-4.1 4.4-6.1 6.7l-6.1 6.7-24.2 26.9-23.6 27.4-5.9 6.8-5.7 7-11.4 14-11.4 14-11 14.3c-7.3 9.6-14.7 19-21.7 28.9L347.8 587l-5.3 7.3c-1.8 2.4-3.4 5-5.1 7.5l-10.1 15-5.1 7.5c-1.7 2.5-3.4 5-5 7.5a1203.8 1203.8 0 00-71.8 125.3 1110.37 1110.37 0 00-55.6 133.4c-1 2.9-2 5.7-2.9 8.6l-2.7 8.6c-1.8 5.8-3.7 11.5-5.4 17.3-3.3 11.6-6.8 23.1-9.7 34.9-3.2 11.6-5.7 23.4-8.5 35.2l-3.6 17.7c-.6 2.9-1.1 5.9-1.7 8.9l-1.6 8.9q-1.5 8.25-2.7 16.5h-5q1-8.7 2.4-17.4l1.4-9c.5-3 .9-6 1.5-9l3.3-17.9c2.5-11.9 4.8-23.8 7.8-35.6 2.7-11.9 6-23.6 9.1-35.3 1.6-5.9 3.4-11.7 5.1-17.5l2.6-8.7c.8-2.9 1.9-5.8 2.8-8.7a1074.88 1074.88 0 0154.1-135.3 1218.56 1218.56 0 0171.2-127.2c52.6-81.8 114.7-157.2 181.9-227l12.6-13.1 6.3-6.6 3.1-3.3 3.2-3.2 25.6-25.8c4.3-4.3 8.5-8.6 12.8-12.9l13-12.7 25.9-25.4 26.2-25.1c8.7-8.4 17.5-16.8 26.3-25 17.7-16.5 35.3-33.1 53.2-49.4q41.1-37.65 82.6-74.6z" fill="url(#w)" transform="translate(.3 .2)"/><path d="M780 159.1v12.1c-16.7 15.2-33.3 30.6-49.9 45.9-17.8 16.4-35.2 33.1-52.8 49.7-8.8 8.3-17.4 16.7-26.1 25.1l-26 25.2-25.7 25.6-12.8 12.8c-4.3 4.2-8.4 8.6-12.7 12.9l-25.3 25.9-3.2 3.2-3.1 3.3-6.2 6.6-12.2 13.3-12.4 13.2c-2.1 2.2-4.1 4.4-6.1 6.7l-6.1 6.7-24.2 26.9-23.6 27.4-5.9 6.8-5.7 7-11.4 14-11.4 14-11 14.3c-7.3 9.6-14.7 19-21.7 28.9L374 601.3l-5.3 7.3c-1.8 2.4-3.4 5-5.1 7.5l-10.1 15-5.1 7.5c-1.7 2.5-3.4 5-5 7.5a1203.8 1203.8 0 00-71.8 125.3A1103.62 1103.62 0 00216 904.8c-1 2.9-2 5.7-2.9 8.6l-2.7 8.6c-1.8 5.8-3.7 11.5-5.4 17.3-3.3 11.6-6.8 23.1-9.7 34.9-3.2 11.6-5.7 23.4-8.5 35.2l-3.6 17.7c-.6 2.9-1.1 5.9-1.7 8.9l-1.6 8.9c-.1.8-.3 1.5-.4 2.3h-5.4c.1-1 .3-2.1.5-3.1l1.4-9c.5-3 .9-6 1.5-9l3.3-17.9c2.5-11.9 4.8-23.8 7.8-35.6 2.7-11.9 6-23.6 9.1-35.3 1.6-5.9 3.4-11.7 5.1-17.5l2.6-8.7c.8-2.9 1.9-5.8 2.8-8.7a1074.88 1074.88 0 0154.1-135.3 1218.56 1218.56 0 0171.2-127.2c52.6-81.8 114.7-157.2 181.9-227l12.6-13.1 6.3-6.6 3.1-3.3 3.2-3.2 25.6-25.8c4.3-4.3 8.5-8.6 12.8-12.9l13-12.7 25.9-25.4 26.2-25.1c8.7-8.4 17.5-16.8 26.3-25 17.7-16.5 35.3-33.1 53.2-49.4 18.8-17.3 37.6-34.3 56.4-51.3z" fill="url(#x)" transform="translate(.3 .2)"/><path d="M780 199.7v12.5c-7.3 6.7-14.6 13.5-21.8 20.2-17.8 16.4-35.2 33.1-52.8 49.7-8.8 8.3-17.4 16.7-26.1 25.1l-26 25.2-25.7 25.6-12.8 12.8c-4.3 4.2-8.4 8.6-12.7 12.9l-25.3 25.9-3.2 3.2-3.1 3.3-6.2 6.6-12.3 13.2-12.4 13.2c-2.1 2.2-4.1 4.4-6.1 6.7l-6.1 6.7-24.2 26.9-23.6 27.4-5.9 6.8-5.7 7-11.4 14-11.4 14-11 14.3c-7.3 9.6-14.7 19-21.7 28.9l-10.6 14.6-5.3 7.3c-1.8 2.4-3.4 5-5.1 7.4l-10.1 15-5.1 7.5c-1.7 2.5-3.4 5-5 7.5a1203.8 1203.8 0 00-71.8 125.3 1110.37 1110.37 0 00-55.6 133.4c-1 2.8-2 5.7-2.9 8.6l-2.7 8.6c-1.8 5.7-3.7 11.5-5.4 17.3-3.3 11.6-6.8 23.2-9.7 34.9-3.2 11.6-5.7 23.4-8.5 35.2l-3.6 17.7c-.3 1.6-.7 3.2-1 4.9h-5.7c.3-2 .6-3.9 1-5.9l3.3-17.9c2.5-11.9 4.8-23.8 7.8-35.6 2.7-11.9 6-23.6 9.1-35.3 1.6-5.9 3.4-11.7 5.2-17.5l2.6-8.7c.8-2.9 1.9-5.8 2.8-8.7a1074.88 1074.88 0 0154.1-135.3 1208.43 1208.43 0 0171.2-127.2c52.6-81.8 114.7-157.2 181.9-227l12.6-13.1 6.3-6.6 3.1-3.3 3.2-3.2 25.6-25.8c4.3-4.3 8.5-8.6 12.8-12.9l13-12.7 25.9-25.4 26.2-25.1c8.8-8.4 17.5-16.8 26.3-25 17.7-16.5 35.3-33.1 53.2-49.4 9.6-8.6 19-17.1 28.4-25.7z" fill="url(#y)" transform="translate(.3 .2)"/><path d="M780 240.5v12.8c-15.6 14.5-31.1 29.3-46.5 43.9-8.8 8.3-17.4 16.7-26.1 25.1l-26 25.2-25.7 25.6-12.8 12.8c-4.3 4.2-8.4 8.6-12.7 12.9l-25.3 25.9-3.2 3.2-3.1 3.3-6.2 6.6L580 451l-12.4 13.2c-2.1 2.2-4.1 4.4-6.1 6.7l-6.1 6.7-24.2 26.9-23.6 27.4-5.9 6.8-5.7 7-11.4 14-11.4 14-11 14.3c-7.3 9.6-14.7 19.1-21.7 28.9l-10.6 14.7-5.3 7.3c-1.8 2.4-3.4 5-5.1 7.5l-10.1 15-5.1 7.5c-1.7 2.5-3.4 5-5 7.5a1203.8 1203.8 0 00-71.8 125.3 1110.37 1110.37 0 00-55.6 133.4c-1 2.9-2 5.7-2.9 8.6l-2.7 8.6c-1.8 5.8-3.7 11.5-5.4 17.3-3.3 11.6-6.8 23.1-9.7 34.9-3.2 11.6-5.7 23.4-8.5 35.2l-1.5 7.4h-6.1l1.6-8.6c2.5-11.9 4.8-23.8 7.8-35.6 2.7-11.9 6-23.6 9.1-35.3 1.6-5.9 3.4-11.7 5.1-17.5l2.6-8.7c.8-2.9 1.9-5.8 2.8-8.7a1074.88 1074.88 0 0154.1-135.3 1218.56 1218.56 0 0171.2-127.2c52.6-81.8 114.7-157.2 181.9-227l18.8-19.7 3.1-3.3 3.2-3.2 25.6-25.8c4.3-4.3 8.5-8.6 12.8-12.9l13-12.7 25.9-25.4 26.2-25.1c8.7-8.4 17.5-16.7 26.3-25 17.7-16.5 35.3-33.1 53.2-49.4.5-.1.6-.1.6-.2z" fill="url(#z)" transform="translate(.3 .2)"/><path d="M780 284.7V298c-5.5 5.2-10.9 10.4-16.4 15.5-8.8 8.3-17.4 16.7-26.1 25.1l-26 25.2-25.7 25.6-12.8 12.8c-4.3 4.2-8.4 8.6-12.7 12.9l-25.3 26-3.2 3.2-3.1 3.3-6.2 6.6-12.4 13.2-12.4 13.2c-2.1 2.2-4.1 4.4-6.1 6.7l-6.1 6.7-24.2 26.9-23.6 27.4-5.9 6.8-5.7 7-11.4 14-11.4 14-11 14.3c-7.3 9.6-14.7 19-21.7 28.9L460.3 648l-5.3 7.3c-1.8 2.4-3.4 5-5.1 7.5l-10.1 15-5.1 7.5c-1.7 2.5-3.4 5-5 7.5a1203.8 1203.8 0 00-71.8 125.3 1110.37 1110.37 0 00-55.6 133.4c-1 2.9-2 5.7-2.9 8.6l-2.7 8.6c-1.8 5.8-3.7 11.5-5.4 17.3-3.3 11.6-6.8 23.1-9.7 34.9-2.4 8.7-4.4 17.4-6.4 26.2h-6.5c1.9-9.3 3.9-18.6 6.2-27.9 2.7-11.9 6-23.6 9.1-35.3 1.6-5.9 3.4-11.7 5.1-17.5l2.6-8.7c.8-2.9 1.9-5.8 2.8-8.7a1074.88 1074.88 0 0154.1-135.3 1218.56 1218.56 0 0171.2-127.2c52.6-81.8 114.7-157.2 181.9-227l18.8-19.7 3.1-3.3 3.2-3.2 25.6-25.8c4.3-4.3 8.5-8.6 12.8-12.9l13-12.7 25.9-25.4 26.2-25.1c8.7-8.4 17.5-16.8 26.3-25 7.9-7.2 15.7-14.5 23.4-21.7z" fill="url(#A)" transform="translate(.3 .2)"/><path d="M780 326.1v13.8c-4.8 4.6-9.6 9.3-14.5 14l-26 25.2-25.7 25.6-12.8 12.8c-4.3 4.2-8.4 8.6-12.7 12.9L663 456.3l-3.2 3.2-3.1 3.3-6.2 6.6-12.4 13.2-12.4 13.2c-2.1 2.2-4.1 4.4-6.1 6.7l-6.1 6.7-24.2 26.9-23.6 27.4-5.9 6.8-5.7 7-11.4 14-11.4 14-11 14.3c-7.3 9.6-14.7 19-21.7 28.9L488 663.1l-5.3 7.3c-1.8 2.4-3.4 5-5.1 7.4l-10.1 15-5.1 7.5c-1.7 2.5-3.4 5-5 7.5a1203.8 1203.8 0 00-71.8 125.3A1110.37 1110.37 0 00330 966.5c-1 2.8-2 5.7-2.9 8.6l-2.7 8.6c-1.8 5.7-3.7 11.5-5.4 17.3-3.3 11.6-6.8 23.2-9.7 34.9-1 3.6-1.9 7.3-2.8 11H300c.9-4.2 1.9-8.5 3-12.7 2.7-11.9 6-23.6 9.1-35.3 1.6-5.9 3.4-11.7 5.2-17.5l2.6-8.7c.8-2.9 1.9-5.8 2.8-8.7a1074.88 1074.88 0 0154.1-135.3A1208.43 1208.43 0 01448 701.5c52.6-81.8 114.7-157.2 181.9-227l12.6-13.1 6.3-6.6 3.1-3.3 3.2-3.2 25.6-25.8c4.3-4.3 8.5-8.6 12.8-12.9l13-12.7 25.9-25.4 26.2-25.1c7.1-6.7 14.2-13.5 21.4-20.3z" fill="url(#B)" transform="translate(.3 .2)"/><path d="M780 368v14.3l-12.4 12-25.7 25.6-12.8 12.8c-4.3 4.2-8.4 8.6-12.7 12.9l-25.3 25.9-3.2 3.2-3.1 3.3-6.2 6.6-12.4 13.2-12.3 13.2c-2.1 2.2-4.1 4.4-6.1 6.7l-6.1 6.7-24.2 26.9-23.6 27.4-5.9 6.8-5.7 7-11.4 14-11.4 14-11 14.3c-7.3 9.6-14.7 19.1-21.7 28.9l-10.6 14.7-5.3 7.3c-1.8 2.4-3.4 5-5.1 7.5l-10.1 15-5.1 7.5c-1.7 2.5-3.4 5-5 7.5a1203.8 1203.8 0 00-71.8 125.3 1110.37 1110.37 0 00-55.6 133.4c-1 2.9-2 5.7-2.9 8.6l-2.7 8.6c-1.8 5.8-3.7 11.5-5.4 17.3-2.9 10.2-5.9 20.4-8.6 30.6h-7.2c2.5-11 5.6-21.9 8.5-32.8 1.6-5.9 3.4-11.7 5.1-17.5l2.6-8.7c.8-2.9 1.9-5.8 2.8-8.7A1074.88 1074.88 0 01404.5 844a1218.56 1218.56 0 0171.2-127.2c52.6-81.8 114.7-157.2 181.9-227l18.8-19.7 3.1-3.3 3.2-3.2 25.6-25.8c4.3-4.3 8.5-8.6 12.8-12.9l13-12.7 25.9-25.4z" fill="url(#C)" transform="translate(.3 .2)"/><path d="M780 410.3v14.8l-10 10-12.8 12.8c-4.3 4.2-8.4 8.6-12.7 12.9l-25.3 25.9-3.2 3.3-3.1 3.3-6.2 6.6-12.4 13.2-12.4 13.2c-2.1 2.2-4.1 4.4-6.1 6.7l-6.1 6.7-24.2 26.9-23.5 27.3-5.9 6.8-5.7 7-11.4 14-11.4 14-11 14.3c-7.3 9.6-14.7 19-21.7 28.9l-10.6 14.6-5.3 7.3c-1.8 2.4-3.4 5-5.1 7.4l-10.1 15-5.1 7.5c-1.7 2.5-3.4 5-5 7.5a1203.8 1203.8 0 00-71.8 125.3 1110.37 1110.37 0 00-55.6 133.4c-1 2.8-2 5.7-2.9 8.6l-2.7 8.6c-1.8 5.7-3.7 11.5-5.4 17.3-1.5 5.1-3 10.3-4.4 15.4h-7.6c1.5-5.9 3.1-11.7 4.7-17.6s3.4-11.7 5.2-17.5l2.6-8.7c.8-2.9 1.9-5.8 2.8-8.7A1074.88 1074.88 0 01432.7 859a1208.43 1208.43 0 0171.2-127.2c52.6-81.8 114.7-157.2 181.9-227l12.6-13.1 6.3-6.6 3.1-3.3 3.2-3.2 25.6-25.8c4.3-4.3 8.5-8.6 12.8-12.9l13-12.7z" fill="url(#D)" transform="translate(.3 .2)"/><path d="M780 452.9v15.4c-2.5 2.6-5 5.1-7.5 7.7l-25.2 26-3.2 3.2-3.1 3.3-6.2 6.6-12.4 13.2-12.4 13.2c-2.1 2.2-4.1 4.4-6.1 6.7l-6.1 6.7-24.2 26.9-23.6 27.3-5.9 6.8-5.7 7L627 637l-11.4 14-11 14.3c-7.3 9.6-14.7 19.1-21.7 28.9l-10.6 14.7-5.3 7.3c-1.8 2.4-3.4 5-5.1 7.4l-10.1 15-5.1 7.5c-1.7 2.5-3.4 5-5 7.5a1203.8 1203.8 0 00-71.8 125.3 1110.37 1110.37 0 00-55.6 133.4c-1 2.9-2 5.7-2.9 8.6l-2.7 8.6c-1.8 5.8-3.7 11.5-5.4 17.3 0 .1 0 .1-.1.2h-7.9l.6-2.4c1.6-5.8 3.4-11.7 5.1-17.5l2.6-8.7c.8-2.9 1.9-5.8 2.8-8.7a1074.88 1074.88 0 0154.1-135.3 1218.56 1218.56 0 0171.2-127.2c52.6-81.8 114.7-157.2 181.9-227l12.6-13.1 6.3-6.6 3.1-3.3 3.2-3.2 25.6-25.8c4.3-4.3 8.5-8.6 12.8-12.9z" fill="url(#E)" transform="translate(.3 .2)"/><path d="M780 496.3v16l-4.7 4.8-3.2 3.2-3.1 3.3-6.2 6.6-12.4 13.2-12.4 13.3c-2.1 2.2-4.1 4.4-6.1 6.7l-6.1 6.7-24.2 26.9-23.6 27.4-5.9 6.8-5.7 7-11.4 14-11.4 14-11 14.3c-7.3 9.6-14.7 19-21.7 28.9L600.3 724l-5.3 7.3c-1.8 2.4-3.4 5-5.1 7.4l-10.1 15-5.1 7.5c-1.7 2.5-3.4 5-5 7.5A1203.8 1203.8 0 00497.9 894a1110.37 1110.37 0 00-55.6 133.4c-1 2.8-2 5.7-2.9 8.6l-2.7 8.6c-.2.8-.5 1.5-.7 2.3h-8c.5-1.5.9-3.1 1.4-4.6l2.6-8.7c.8-2.9 1.9-5.8 2.8-8.7a1074.88 1074.88 0 0154.1-135.3 1208.43 1208.43 0 0171.2-127.2c52.6-81.8 114.7-157.2 181.9-227l12.6-13.1 6.3-6.6 3.1-3.3 3.2-3.2z" fill="url(#F)" transform="translate(.3 .2)"/><path d="M780 542v16.8l-.4.4-12.4 13.2c-2.1 2.2-4.1 4.4-6.1 6.7l-6.1 6.7-24.2 26.9-23.6 27.4-5.9 6.8-5.7 7-11.4 14-11.4 14-11 14.3c-7.3 9.6-14.7 19.1-21.7 28.9l-10.6 14.7-5.3 7.3c-1.8 2.4-3.4 5-5.1 7.4l-10.1 15-5.1 7.5c-1.7 2.5-3.4 5-5 7.5a1203.8 1203.8 0 00-71.8 125.3 1110.37 1110.37 0 00-55.6 133.4c-.4 1.2-.8 2.4-1.3 3.6h-8.6c.7-2.1 1.4-4.2 2-6.2a1074.88 1074.88 0 0154.1-135.3 1218.56 1218.56 0 0171.2-127.2c52.6-81.8 114.7-157.2 181.9-227z" fill="url(#G)" transform="translate(.3 .2)"/><path d="M780 586.8v17.7l-21.1 23.4-23.6 27.4-5.9 6.8-5.7 7-11.4 14-11.4 14-11 14.3c-7.3 9.6-14.7 19-21.7 28.9l-10.6 14.6-5.3 7.3c-1.8 2.4-3.4 5-5.1 7.4l-10.1 15-5.1 7.5c-1.7 2.5-3.4 5-5 7.5a1203.8 1203.8 0 00-71.8 125.3 1094.45 1094.45 0 00-51.5 121.8h-9a1088.56 1088.56 0 0151.2-126.4 1208.43 1208.43 0 0171.2-127.2c47.8-73.6 103.1-142.3 162.9-206.3z" fill="url(#H)" transform="translate(.3 .2)"/><path d="M780 632.7v18.4l-16.7 19.4-5.9 6.8-5.7 7-11.4 14-11.4 14-11 14.4c-7.3 9.6-14.7 19-21.7 28.9l-10.6 14.6-5.3 7.3c-1.8 2.4-3.4 5-5.1 7.4l-10.1 15-5.1 7.5c-1.7 2.5-3.4 5-5 7.5a1203.8 1203.8 0 00-71.8 125.3 1090.57 1090.57 0 00-46 106.6h-9.3a1088.4 1088.4 0 0146-111.2 1218.56 1218.56 0 0171.2-127.2c40.3-61.9 85.8-120.5 134.9-175.7z" fill="url(#I)" transform="translate(.3 .2)"/><path d="M780 684v19l-9.5 11.7-11.4 14-11 14.3c-7.3 9.6-14.7 19.1-21.7 28.9l-10.6 14.6-5.3 7.3c-1.8 2.4-3.4 5-5.1 7.4l-10.1 15-5.1 7.5c-1.7 2.5-3.4 5-5 7.5a1203.8 1203.8 0 00-71.8 125.3q-21.9 44.25-39.8 90.2H564c11.9-32.2 25.3-63.9 40.1-94.8a1218.56 1218.56 0 0171.2-127.2A1449.44 1449.44 0 01780 684z" fill="url(#J)" transform="translate(.3 .2)"/><path d="M780 733.6v19.8l-3.8 5c-7.3 9.6-14.7 19-21.7 28.9L744 801.9l-5.3 7.3c-1.8 2.4-3.4 5-5.1 7.4l-10.1 15-5.1 7.5c-1.7 2.5-3.4 5-5 7.5a1203.8 1203.8 0 00-71.8 125.3q-18.3 36.9-33.8 75h-10q15.6-40.5 34.4-79.6a1208.43 1208.43 0 0171.2-127.2q35.85-55.05 76.6-106.5z" fill="url(#K)" transform="translate(.3 .2)"/><path d="M780 785.5V806l-8 11.1-5.3 7.3c-1.8 2.4-3.4 5-5.1 7.4l-10.1 15-5.1 7.5c-1.7 2.5-3.4 5-5 7.5a1203.8 1203.8 0 00-71.8 125.3c-9.8 19.6-18.9 39.6-27.5 59.8H632c8.8-21.8 18.3-43.2 28.4-64.4a1218.56 1218.56 0 0171.2-127.2q23.1-35.55 48.4-69.8z" fill="url(#L)" transform="translate(.3 .2)"/><path d="M780 840.1v21.3l-.4.6-5.1 7.5c-1.7 2.5-3.4 5-5 7.5a1203.8 1203.8 0 00-71.8 125.3q-11 22-20.9 44.6h-10.6q10.5-24.9 22.1-49.2a1208.43 1208.43 0 0171.2-127.2c6.8-10.1 13.6-20.3 20.5-30.4z" fill="url(#M)" transform="translate(.3 .2)"/><path d="M780 898.1V920q-29.4 47.55-54.2 97.7c-4.8 9.7-9.5 19.5-14 29.4h-10.9c5-11.4 10.2-22.7 15.6-34a1190.2 1190.2 0 0163.5-115z" fill="url(#N)" transform="translate(.3 .2)"/><path d="M780 960.4V983q-13.65 24.6-26.1 49.8c-2.3 4.7-4.6 9.4-6.9 14.2h-11.2c2.9-6.3 5.8-12.5 8.8-18.8q16.5-34.5 35.4-67.8z" fill="url(#O)" transform="translate(.3 .2)"/><path d="M780 1023.5v23.5h-11.5c.7-1.5 1.4-3.1 2.2-4.6q4.5-9.45 9.3-18.9z" fill="url(#P)" transform="translate(.3 .2)"/></g></mask></defs><g data-name="Layer 4" mask="url(#Q)"><path fill="url(#a)" d="M33.7.2L10.5 23.3.3 33.5V18.3L3 15.7 18.8.2h14.9z"/><path d="M77.1 0L63.9 12.8 38.2 38.3 25.4 51.1C21.1 55.3 17 59.7 12.7 64L0 77.1V61.2l4.9-5c4.3-4.3 8.5-8.6 12.8-12.9l13-12.7 26-25.3L62.2 0z" transform="translate(.3 .2)" fill="url(#R)"/><path d="M120.8 0c-.9.9-1.9 1.8-2.8 2.8L92 28 66.3 53.5 53.5 66.3c-4.3 4.2-8.4 8.6-12.7 12.9l-25.3 25.9-3.2 3.2-3.1 3.3-6.2 6.6-3 3.4v-16.7l1.1-1.1 3.1-3.3 3.2-3.2L33 71.5c4.3-4.3 8.5-8.6 12.8-12.9l13-12.7 25.9-25.4L106.1 0z" transform="translate(.3 .2)" fill="url(#S)"/><path d="M164.6 0L146 18l-26 25.2-25.7 25.5-12.8 12.8c-4.3 4.2-8.4 8.6-12.7 12.9l-25.3 25.9-3.1 3.2-3.1 3.3-6.2 6.6-12.4 13.2-12.4 13.3c-2.1 2.2-4.1 4.4-6.1 6.7l-.2.2v-17.3c3.4-3.6 6.8-7.2 10.3-10.8l12.6-13.1 6.3-6.6 3.1-3.3 3.2-3.2L61 86.7c4.3-4.3 8.5-8.6 12.8-12.9l13-12.7 25.9-25.4L139 10.6c3.7-3.5 7.4-7.1 11.1-10.6z" transform="translate(.3 .2)" fill="url(#T)"/><path d="M386 0c-7 6.4-13.9 12.8-20.8 19.3C347.4 35.7 330 52.4 312.4 69c-8.8 8.3-17.4 16.7-26.1 25.1l-26 25.2-25.7 25.6-12.8 12.8c-4.3 4.2-8.4 8.6-12.7 12.9l-25.3 25.9-3.2 3.2-3.1 3.3-6.2 6.6-12.3 13.2-12.4 13.2c-2.1 2.2-4.1 4.4-6.1 6.7l-6.1 6.7-24.2 26.9-23.6 27.4-5.9 6.8-5.7 7-11.4 14-11.4 14-11 14.3c-7.3 9.6-14.7 19.1-21.7 28.9L9 403.4l-5.3 7.3c-1.3 1.8-2.5 3.6-3.8 5.5v-20.9c45.3-64.1 96.3-124.2 150.6-180.5l18.8-19.7 3.1-3.3 3.2-3.2 25.6-25.8c4.3-4.3 8.5-8.6 12.8-12.9l13-12.7 25.9-25.4 26.2-25.1c8.7-8.3 17.5-16.7 26.3-25 17.7-16.5 35.3-33.1 53.2-49.4L372.1 0z" transform="translate(.3 .2)" fill="url(#U)"/><path d="M430.6 0c-12.5 11.4-24.9 22.9-37.4 34.5-17.8 16.4-35.2 33.1-52.8 49.7-8.8 8.3-17.4 16.7-26.1 25.1l-26 25.2-25.7 25.5-12.8 12.8c-4.3 4.2-8.4 8.6-12.7 12.9l-25.3 25.9-3.2 3.2-3.1 3.3-6.2 6.6L187 238l-12.4 13.2c-2.1 2.2-4.1 4.4-6.1 6.7l-6.1 6.7-24.2 26.9-23.6 27.4-5.9 6.8-5.7 7-11.4 14-11.4 14-11 14.3c-7.3 9.6-14.7 19-21.7 28.9l-10.6 14.6-5.3 7.3c-1.8 2.4-3.4 5-5.1 7.4l-10.1 15-5.1 7.5c-1.7 2.5-3.4 5-5 7.5l-6.6 10.2v-21.6C51.9 372 112.8 298.3 178.6 230l12.6-13.1 6.3-6.6 3.1-3.3 3.2-3.2 25.6-25.8c4.3-4.3 8.5-8.6 12.8-12.9l13-12.7 25.9-25.4 26.2-25.1c8.7-8.4 17.5-16.8 26.3-25 17.7-16.5 35.3-33.1 53.2-49.4 10-9.2 20.1-18.4 30.2-27.5z" transform="translate(.3 .2)" fill="url(#V)"/><path d="M475.3 0c-18.1 16.5-36.1 33-54 49.7C403.5 66 386 82.8 368.5 99.4c-8.8 8.3-17.4 16.7-26.1 25.1l-26 25.2-25.7 25.6-12.8 12.7c-4.3 4.2-8.4 8.6-12.7 12.9l-25.3 25.9-3.2 3.2-3.1 3.3-6.2 6.6-12.4 13.2-12.4 13.2c-2.1 2.2-4.1 4.4-6.1 6.7l-6.1 6.7-24.2 26.9-23.5 27.4-5.9 6.8-5.7 7-11.4 14-11.4 14-11 14.3c-7.3 9.6-14.7 19.1-21.7 28.9L65 433.7l-5.3 7.3c-1.8 2.4-3.4 5-5.1 7.4l-10.1 15-5.1 7.5c-1.7 2.5-3.4 5-5 7.5C22.6 496.9 11 515.7 0 534.7v-22.2q12-20.4 24.8-40.3c52.6-81.8 114.7-157.2 181.9-227l18.8-19.7 3.1-3.3 3.2-3.2 25.6-25.8c4.3-4.3 8.5-8.6 12.8-12.9l13-12.7 25.9-25.4 26.2-25.1c8.7-8.4 17.5-16.8 26.3-25C379.4 75.6 397 59 414.9 42.8q23.4-21.45 47-42.8z" transform="translate(.3 .2)" fill="url(#W)"/><path d="M520 0q-35.55 32.25-70.7 64.9c-17.8 16.4-35.2 33.1-52.8 49.7-8.8 8.3-17.4 16.7-26.1 25.1l-26 25.2-25.7 25.6-12.8 12.8c-4.3 4.2-8.4 8.6-12.7 12.9L268 242.1l-3.2 3.2-3.1 3.3-6.2 6.6-12.4 13.2-12.4 13.2c-2.1 2.2-4.1 4.4-6.1 6.7l-6.1 6.7-24.2 26.9-23.6 27.4-5.9 6.8-5.7 7-11.4 14-11.4 14-11 14.3c-7.3 9.6-14.7 19-21.7 28.9L93.2 449l-5.3 7.3c-1.8 2.4-3.4 5-5.1 7.4l-10.1 15-5.1 7.5c-1.7 2.5-3.4 5-5 7.5A1222 1222 0 000 601.1V578c16.3-31 34-61.2 52.8-90.6 52.6-81.8 114.7-157.2 181.9-227l12.6-13.1 6.3-6.6 3.1-3.3 3.2-3.2 25.6-25.8c4.3-4.3 8.5-8.6 12.8-12.9l13-12.7 25.9-25.4 26.2-25.1c8.7-8.4 17.5-16.8 26.3-25C407.4 90.8 425 74.2 442.9 58q31.8-29.1 63.9-58z" transform="translate(.3 .2)" fill="url(#X)"/><path d="M208.7 0c-2.8 2.7-5.7 5.4-8.5 8.1-8.8 8.3-17.4 16.7-26.1 25.1l-26 25.2L122.4 84l-12.8 12.8c-4.3 4.2-8.4 8.6-12.7 12.9l-25.3 25.9-3.2 3.2-3.1 3.3-6.2 6.6-12.4 13.2-12.4 13.2c-2.1 2.2-4.1 4.4-6.1 6.7l-6.1 6.7L0 213.1V195q18.9-20.85 38.3-41.1l12.6-13.1 6.3-6.6 3.1-3.3 3.2-3.2 25.6-25.8c4.3-4.3 8.5-8.6 12.8-12.9l13-12.7 25.9-25.4L167 25.8c8.7-8.4 17.5-16.8 26.3-25l.9-.9h14.5z" transform="translate(.3 .2)" fill="url(#Y)"/><path d="M252.8 0c-8.2 7.8-16.4 15.5-24.6 23.3-8.8 8.3-17.4 16.7-26.1 25.1l-26 25.2-25.7 25.6-12.8 12.8c-4.3 4.2-8.4 8.6-12.7 12.9l-25.3 25.9-3.2 3.2-3.1 3.3-6.2 6.6-12.4 13.2-12.4 13.2c-2.1 2.2-4.1 4.4-6.1 6.7l-6.1 6.7L26 230.5 2.5 257.9 0 260.8V242q32.1-37.5 66.4-72.9L79 156l6.3-6.6 3.1-3.3 3.2-3.2 25.6-25.8c4.3-4.3 8.5-8.6 12.8-12.9l13-12.7 25.9-25.4L195.1 41c8.8-8.4 17.5-16.8 26.3-25 5.7-5.3 11.5-10.7 17.2-16.1h14.2z" transform="translate(.3 .2)" fill="url(#Z)"/><path d="M297 0c-13.7 12.8-27.2 25.7-40.8 38.5-8.8 8.3-17.4 16.7-26.1 25.1l-26 25.2-25.7 25.6-12.8 12.8c-4.3 4.2-8.4 8.6-12.7 12.9L127.7 166l-3.2 3.2-3.1 3.3-6.2 6.6-12.4 13.2-12.4 13.2c-2.1 2.2-4.1 4.4-6.1 6.7l-6.1 6.7L54 245.8l-23.6 27.4-5.9 6.8-5.7 7-11.3 14-7.5 9.3v-19.4c29.9-36.9 61.6-72.4 94.5-106.6l12.6-13.1 6.3-6.6 3.1-3.3 3.2-3.2 25.6-25.8c4.3-4.3 8.5-8.6 12.8-12.9l13-12.7L197 81.3l26.2-25.1c8.7-8.4 17.5-16.7 26.3-25C260.7 20.9 271.8 10.4 283 0z" transform="translate(.3 .2)" fill="url(#aa)"/><path d="M341.5 0c-1.5 1.3-2.9 2.7-4.4 4-17.8 16.4-35.2 33.1-52.8 49.7-8.8 8.3-17.4 16.7-26.1 25.1l-26 25.2-25.7 25.6-12.8 12.8c-4.3 4.2-8.4 8.6-12.7 12.9l-25.3 25.9-3.2 3.2-3.1 3.3-6.2 6.6-12.4 13.2-12.4 13.2c-2.1 2.2-4.1 4.4-6.1 6.7l-6.1 6.7L82.1 261l-23.6 27.4-5.9 6.8-5.7 7-11.4 14-11.4 14-11 14.3C8.7 350.3 4.2 356-.1 361.8v-20.1a1597 1597 0 01122.5-142.3l12.6-13.1 6.3-6.6 3.1-3.3 3.2-3.2 25.6-25.8c4.3-4.3 8.5-8.6 12.8-12.9l13-12.7 26-25.3 26.2-25.1c8.8-8.4 17.5-16.8 26.3-25 16.6-15.5 33.2-31.2 50-46.5h14z" transform="translate(.3 .2)" fill="url(#ab)"/><path d="M564.9 0q-44.1 39.75-87.6 80.1c-17.8 16.4-35.2 33.1-52.8 49.7-8.8 8.3-17.4 16.7-26.1 25.1l-26 25.2-25.7 25.6-12.7 12.7c-4.3 4.2-8.4 8.6-12.7 12.9l-25.3 26-3.1 3.2-3.1 3.3-6.2 6.6-12.4 13.2-12.4 13.2c-2.1 2.2-4.1 4.4-6.1 6.7l-6.1 6.7-24.2 26.8-23.6 27.4-5.9 6.8-5.7 7-11.4 14-11.4 14-11 14.3c-7.3 9.6-14.7 19.1-21.7 28.9L121.1 464l-5.3 7.3c-1.8 2.4-3.4 5-5.1 7.4l-10.1 15-5.1 7.5c-1.7 2.5-3.4 5-5 7.5A1203.8 1203.8 0 0018.7 634C12.4 647.6 6 661 0 674.5v-24.1c3.1-6.9 6.4-13.8 9.6-20.7a1218.56 1218.56 0 0171.2-127.2c52.6-81.8 114.7-157.2 181.9-227l12.6-13.1 6.3-6.6 3.1-3.3 3.2-3.2 25.6-25.8c4.3-4.3 8.5-8.6 12.8-12.9l13-12.7 25.9-25.4 26.2-25.1c8.7-8.4 17.5-16.8 26.3-25 17.7-16.5 35.3-33.1 53.2-49.4q40.2-36.9 80.9-73.2h13.1z" transform="translate(.3 .2)" fill="url(#ac)"/><path d="M609.9 0q-52.65 47.25-104.5 95.3c-17.8 16.4-35.2 33.1-52.8 49.7-8.8 8.3-17.4 16.7-26.1 25.1l-26 25.2-25.7 25.6-12.8 12.7c-4.3 4.2-8.4 8.6-12.7 12.9L324 272.4l-3.2 3.2-3.1 3.3-6.2 6.6-12.4 13.2-12.3 13.3c-2.1 2.2-4.1 4.4-6.1 6.7l-6.1 6.7-24.2 26.9-23.6 27.4-5.9 6.8-5.7 7-11.4 14-11.4 14-11 14.3c-7.3 9.6-14.7 19-21.7 28.9l-10.6 14.6-5.3 7.3c-1.8 2.4-3.4 5-5.1 7.4l-10.1 15-5.1 7.5c-1.7 2.5-3.4 5-5 7.5A1263.78 1263.78 0 0047 649.5 1108.18 1108.18 0 000 758.7v-25.6c11.2-29.9 23.9-59.4 37.7-88.2a1208.43 1208.43 0 0171.2-127.2c52.6-81.8 114.7-157.2 181.9-227l12.6-13.1 6.3-6.6 3.1-3.3 3.2-3.2 25.6-25.8c4.3-4.3 8.5-8.6 12.8-12.9l13-12.7 25.9-25.4 26.2-25.1c8.7-8.4 17.5-16.8 26.3-25 17.7-16.5 35.3-33.1 53.2-49.4q48.6-44.7 98-88.4h12.9z" transform="translate(.3 .2)" fill="url(#ad)"/><path d="M655 0q-61.35 54.6-121.5 110.5c-17.8 16.4-35.2 33.1-52.8 49.7-8.8 8.3-17.4 16.7-26.1 25.1l-26 25.2-25.7 25.6-12.8 12.8c-4.3 4.2-8.4 8.6-12.7 12.9l-25.3 25.9-3.1 3.3-3.1 3.3-6.2 6.6-12.4 13.1-12.4 13.2c-2.1 2.2-4.1 4.4-6.1 6.7l-6.1 6.7-24.2 26.9-23.6 27.4-5.9 6.8-5.7 7-11.4 14-11.4 14-11 14.4c-7.3 9.6-14.7 19-21.7 28.9l-10.6 14.6-5.3 7.3c-1.8 2.4-3.4 5-5.1 7.4l-10.1 15-5.1 7.5c-1.7 2.5-3.4 5-5 7.5a1203.8 1203.8 0 00-71.8 125.3A1110.37 1110.37 0 0019.2 798c-1 2.9-2 5.7-2.9 8.6l-2.7 8.6c-1.8 5.7-3.7 11.5-5.4 17.3-2.8 10-5.8 19.9-8.4 29.9v-28c.4-1.4.7-2.7 1.1-4.1 1.6-5.8 3.4-11.7 5.2-17.5l2.6-8.7c.8-2.9 1.9-5.8 2.8-8.7a1074.88 1074.88 0 0154.1-135.3 1218.56 1218.56 0 0171.2-127.2c52.6-81.8 114.7-157.2 181.9-227l12.6-13.1 6.3-6.6 3.1-3.3 3.2-3.2 25.6-25.8c4.3-4.3 8.5-8.6 12.8-12.9l13-12.7 25.9-25.4 26.2-25.1c8.8-8.4 17.5-16.8 26.3-25 17.7-16.5 35.3-33.1 53.2-49.4q57-52.35 115.2-103.6H655z" transform="translate(.3 .2)" fill="url(#ae)"/><path d="M703.5 0q-70.65 62.7-139.9 126.9c-17.8 16.4-35.2 33.1-52.8 49.7-8.8 8.3-17.4 16.7-26.1 25.1l-26 25.2-25.7 25.5-12.8 12.8c-4.3 4.2-8.4 8.6-12.7 12.9L382.2 304l-3.2 3.2-3.1 3.3-6.2 6.6-12.4 13.2-12.3 13.3c-2.1 2.2-4.1 4.4-6.1 6.7l-6.1 6.7-24.2 26.9-23.6 27.4-5.9 6.8-5.7 7-11.4 14-11.4 14-11 14.3c-7.3 9.6-14.7 19.1-21.7 28.9L207.5 511l-5.3 7.3c-1.8 2.4-3.4 5-5.1 7.4l-10.1 15-5.1 7.5c-1.7 2.5-3.4 5-5 7.5A1203.8 1203.8 0 00105.1 681a1110.37 1110.37 0 00-55.6 133.4c-1 2.9-2 5.7-2.9 8.6l-2.7 8.6c-1.8 5.7-3.7 11.5-5.4 17.3-3.3 11.6-6.8 23.2-9.7 34.9-3.2 11.6-5.7 23.4-8.5 35.2l-3.6 17.7c-.6 2.9-1.1 5.9-1.7 8.9l-1.6 8.9q-6.3 35.7-9.2 71.8-.45 4.5-.6 9l-.6 9c0 .9-.1 1.8-.1 2.7H.1v-2.8l.3-9.1c.1-3 .2-6.1.4-9.1 1.2-24.3 3.8-48.4 7.4-72.5l1.4-9c.5-3 .9-6 1.5-9l3.3-17.9c2.5-11.9 4.8-23.8 7.8-35.6 2.7-11.9 6-23.6 9.1-35.3 1.6-5.8 3.4-11.7 5.1-17.5l2.6-8.7c.8-2.9 1.9-5.8 2.8-8.7a1074.88 1074.88 0 0154.1-135.3 1218.56 1218.56 0 0171.2-127.2c52.6-81.8 114.7-157.2 181.9-227l18.8-19.7 3.1-3.3 3.2-3.2 25.6-25.8c4.3-4.3 8.5-8.6 12.8-12.9l13-12.7 25.9-25.4 26.2-25.1c8.7-8.4 17.5-16.8 26.3-25 17.7-16.5 35.3-33.1 53.2-49.4Q623.55 59.2 691 0z" transform="translate(.3 .2)" fill="url(#af)"/><path d="M748.8 0q-79.35 70.05-157.1 142.1c-17.8 16.4-35.2 33.1-52.8 49.7-8.8 8.3-17.4 16.7-26.1 25.1l-26 25.2-25.7 25.6-12.8 12.8c-4.3 4.2-8.4 8.6-12.7 12.9l-25.3 25.9-3.2 3.2-3.1 3.3-6.2 6.6-12.4 13.2-12.4 13.2c-2.1 2.2-4.1 4.4-6.1 6.7l-6.1 6.7-24.1 26.8-23.6 27.4-5.9 6.8-5.7 7-11.4 14-11.4 14-11 14.3c-7.3 9.6-14.7 19-21.7 28.9L235.4 526l-5.3 7.3c-1.8 2.4-3.4 5-5.1 7.4l-10.1 15-5.1 7.5c-1.7 2.5-3.4 5-5 7.5A1203.8 1203.8 0 00133 696a1110.37 1110.37 0 00-55.6 133.4c-1 2.8-2 5.7-2.9 8.6l-2.7 8.6c-1.8 5.8-3.7 11.5-5.4 17.3-3.3 11.6-6.8 23.2-9.7 34.9-3.2 11.6-5.7 23.4-8.5 35.2l-3.6 17.7c-.6 2.9-1.1 5.9-1.7 8.9l-1.6 8.9q-6.3 35.7-9.2 71.8c-.2 1.8-.3 3.7-.4 5.5h-3.3c.1-1.9.1-3.8.3-5.7 1.2-24.3 3.8-48.4 7.4-72.5l1.4-9c.5-3 .9-6 1.5-9l3.3-17.9c2.5-11.9 4.8-23.8 7.8-35.6 2.7-11.9 6-23.6 9.1-35.3 1.6-5.9 3.4-11.7 5.1-17.5l2.6-8.7c.8-2.9 1.9-5.8 2.8-8.7a1074.88 1074.88 0 0154.1-135.3A1208.43 1208.43 0 01195 564.4c52.6-81.8 114.7-157.2 181.9-227l12.6-13.1 6.3-6.6 3.1-3.3 3.2-3.2 25.6-25.8c4.3-4.3 8.5-8.6 12.8-12.9l13-12.7 25.9-25.4 26.2-25.1c8.7-8.4 17.5-16.8 26.3-25 17.7-16.5 35.3-33.1 53.2-49.4Q660.1 66.65 736.4 0z" transform="translate(.3 .2)" fill="url(#ag)"/><path d="M780 1.7v10.7q-81 71.4-160.3 144.9c-17.8 16.4-35.2 33.1-52.8 49.7-8.8 8.3-17.4 16.7-26.1 25.1l-26 25.2-25.7 25.6-12.8 12.8c-4.3 4.2-8.4 8.6-12.7 12.9l-25.3 25.9-3.1 3.2-3.1 3.3-6.2 6.6-12.4 13.2-12.4 13.2c-2.1 2.2-4.1 4.4-6.1 6.7l-6.1 6.7-24.2 26.9-23.6 27.4-5.9 6.8-5.7 7-11.4 14-11.4 14-11 14.4c-7.3 9.6-14.7 19-21.7 28.9l-10.6 14.6-5.3 7.3c-1.8 2.4-3.4 5-5.1 7.4l-10.1 15-5.1 7.5c-1.7 2.5-3.4 5-5 7.5A1203.8 1203.8 0 00161 711.4a1110.37 1110.37 0 00-55.6 133.4c-1 2.9-2 5.7-2.9 8.6l-2.7 8.6c-1.8 5.7-3.7 11.5-5.4 17.3-3.3 11.6-6.8 23.2-9.7 34.9-3.2 11.6-5.7 23.4-8.5 35.2l-3.6 17.7c-.6 2.9-1.1 5.9-1.7 8.9l-1.6 8.9q-5.4 30.9-8.4 62.1h-3.7q2.1-31.65 6.8-63l1.4-9c.5-3 .9-6 1.5-9l3.3-17.9c2.5-11.9 4.8-23.8 7.8-35.6 2.7-11.9 6-23.6 9.1-35.3 1.6-5.9 3.4-11.7 5.1-17.5l2.6-8.7c.8-2.9 1.9-5.8 2.8-8.7A1115.51 1115.51 0 01152 706.9a1218.56 1218.56 0 0171.2-127.2c52.6-81.8 114.7-157.2 181.9-227l12.6-13.1 6.3-6.6 3.1-3.3 3.2-3.2 25.6-25.8c4.3-4.3 8.5-8.6 12.8-12.9l13-12.7 25.9-25.4 26.2-25.1c8.7-8.4 17.5-16.8 26.3-25 17.7-16.5 35.3-33.1 53.2-49.4Q695.65 74.9 780 1.7z" transform="translate(.3 .2)" fill="url(#ah)"/><path d="M780 41.4v11.1q-66.75 59.25-132.2 120c-17.8 16.4-35.2 33.1-52.8 49.7-8.8 8.3-17.4 16.7-26.1 25.1l-26 25.2-25.7 25.5-12.8 12.8c-4.3 4.2-8.4 8.6-12.7 12.9l-25.3 25.9-3.2 3.2-3.1 3.3-6.2 6.6-12.3 13.3-12.4 13.2c-2.1 2.2-4.1 4.4-6.1 6.7l-6.1 6.7-24.2 26.9-23.6 27.4-5.9 6.8-5.7 7-11.4 14-11.4 14-11 14.3c-7.3 9.6-14.7 19-21.7 28.9l-10.6 14.7-5.3 7.3c-1.8 2.4-3.4 5-5.1 7.4l-10.1 15-5.1 7.5c-1.7 2.5-3.4 5-5 7.5a1203.8 1203.8 0 00-71.8 125.3A1103.62 1103.62 0 00133.5 860c-1 2.8-2 5.7-2.9 8.6l-2.7 8.6c-1.8 5.8-3.7 11.5-5.4 17.3-3.3 11.6-6.8 23.1-9.7 34.9-3.2 11.6-5.7 23.4-8.5 35.2l-3.6 17.7c-.6 2.9-1.1 5.9-1.7 8.9l-1.6 8.9c-2.7 15.6-5 31.2-6.8 46.9h-4.2c1.4-16 3.3-31.9 5.7-47.8l1.4-9c.5-3 .9-6 1.5-9l3.3-17.9c2.5-11.9 4.8-23.8 7.8-35.6 2.7-11.9 6-23.6 9.1-35.3 1.6-5.9 3.4-11.7 5.1-17.5l2.6-8.7c.8-2.9 1.9-5.8 2.8-8.7A1114.94 1114.94 0 01180 722.1a1208.43 1208.43 0 0171.2-127.2c52.6-81.8 114.7-157.2 181.9-227l12.6-13.1 6.3-6.6 3.1-3.3 3.2-3.2 25.6-25.8c4.3-4.3 8.5-8.6 12.8-12.9l13-12.7 25.9-25.4 26.2-25.1c8.7-8.4 17.5-16.8 26.3-25 17.7-16.5 35.3-33.1 53.2-49.4Q710 102.7 780 41.4z" transform="translate(.3 .2)" fill="url(#ai)"/><path d="M780 81.3v11.4q-52.5 47.1-104.2 95c-17.8 16.4-35.2 33.1-52.8 49.7-8.8 8.3-17.4 16.7-26.1 25.1l-26 25.2-25.7 25.6-12.8 12.7c-4.3 4.2-8.4 8.6-12.7 12.9l-25.3 25.9-3.2 3.2-3.1 3.3-6.1 6.7-12.4 13.2-12.4 13.2c-2.1 2.2-4.1 4.4-6.1 6.7l-6.1 6.7-24.2 26.9-23.5 27.3-5.9 6.8-5.7 7-11.4 14-11.4 14-11 14.3c-7.3 9.6-14.7 19-21.7 28.9l-10.6 14.6-5.3 7.3c-1.8 2.4-3.4 5-5.1 7.4l-10.1 15-5.1 7.5c-1.7 2.5-3.4 5-5 7.5a1203.8 1203.8 0 00-71.8 125.3A1110.37 1110.37 0 00161.6 875c-1 2.8-2 5.7-2.9 8.6l-2.7 8.6c-1.8 5.7-3.7 11.5-5.4 17.3-3.3 11.6-6.8 23.2-9.7 34.9-3.2 11.6-5.7 23.4-8.5 35.2l-3.6 17.7c-.6 2.9-1.1 5.9-1.7 8.9l-1.6 8.9c-1.9 10.5-3.5 21.1-4.9 31.7H116c1.2-10.9 2.6-21.7 4.2-32.6l1.4-9c.5-3 .9-6 1.5-9l3.3-17.9c2.5-11.9 4.8-23.8 7.8-35.6 2.7-11.9 6-23.6 9.1-35.3 1.6-5.9 3.4-11.7 5.2-17.5l2.6-8.7c.8-2.9 1.9-5.8 2.8-8.7A1074.88 1074.88 0 01208 737.2 1208.43 1208.43 0 01279.2 610c52.6-81.8 114.7-157.2 181.9-227l12.6-13.1 6.3-6.6 3.1-3.3 3.2-3.2 25.6-25.8c4.3-4.3 8.5-8.6 12.8-12.9l13-12.7 25.9-25.4 26.2-25.1c8.7-8.4 17.5-16.8 26.3-25 17.7-16.5 35.3-33.1 53.2-49.4q55.05-49.95 110.7-99.2z" transform="translate(.3 .2)" fill="url(#aj)"/><path d="M780 121.4v11.8q-38.25 34.65-76.1 69.8c-17.8 16.4-35.2 33.1-52.8 49.7-8.8 8.3-17.4 16.7-26.1 25.1L599 303l-25.7 25.6-12.8 12.8c-4.3 4.2-8.4 8.6-12.7 12.9l-25.3 25.9-3.2 3.2-3.1 3.3-6.2 6.6-12.4 13.2-12.4 13.2c-2.1 2.2-4.1 4.4-6.1 6.7l-6.1 6.7-24.2 26.9-23.6 27.4-5.9 6.8-5.7 7-11.4 14-11.4 14-11 14.3c-7.3 9.6-14.7 19-21.7 28.9L347.8 587l-5.3 7.3c-1.8 2.4-3.4 5-5.1 7.5l-10.1 15-5.1 7.5c-1.7 2.5-3.4 5-5 7.5a1203.8 1203.8 0 00-71.8 125.3 1110.37 1110.37 0 00-55.6 133.4c-1 2.9-2 5.7-2.9 8.6l-2.7 8.6c-1.8 5.8-3.7 11.5-5.4 17.3-3.3 11.6-6.8 23.1-9.7 34.9-3.2 11.6-5.7 23.4-8.5 35.2l-3.6 17.7c-.6 2.9-1.1 5.9-1.7 8.9l-1.6 8.9q-1.5 8.25-2.7 16.5h-5q1-8.7 2.4-17.4l1.4-9c.5-3 .9-6 1.5-9l3.3-17.9c2.5-11.9 4.8-23.8 7.8-35.6 2.7-11.9 6-23.6 9.1-35.3 1.6-5.9 3.4-11.7 5.1-17.5l2.6-8.7c.8-2.9 1.9-5.8 2.8-8.7a1074.88 1074.88 0 0154.1-135.3 1218.56 1218.56 0 0171.2-127.2c52.6-81.8 114.7-157.2 181.9-227l12.6-13.1 6.3-6.6 3.1-3.3 3.2-3.2 25.6-25.8c4.3-4.3 8.5-8.6 12.8-12.9l13-12.7 25.9-25.4 26.2-25.1c8.7-8.4 17.5-16.8 26.3-25 17.7-16.5 35.3-33.1 53.2-49.4q41.1-37.65 82.6-74.6z" transform="translate(.3 .2)" fill="url(#ak)"/><path d="M780 159.1v12.1c-16.7 15.2-33.3 30.6-49.9 45.9-17.8 16.4-35.2 33.1-52.8 49.7-8.8 8.3-17.4 16.7-26.1 25.1l-26 25.2-25.7 25.6-12.8 12.8c-4.3 4.2-8.4 8.6-12.7 12.9l-25.3 25.9-3.2 3.2-3.1 3.3-6.2 6.6-12.2 13.3-12.4 13.2c-2.1 2.2-4.1 4.4-6.1 6.7l-6.1 6.7-24.2 26.9-23.6 27.4-5.9 6.8-5.7 7-11.4 14-11.4 14-11 14.3c-7.3 9.6-14.7 19-21.7 28.9L374 601.3l-5.3 7.3c-1.8 2.4-3.4 5-5.1 7.5l-10.1 15-5.1 7.5c-1.7 2.5-3.4 5-5 7.5a1203.8 1203.8 0 00-71.8 125.3A1103.62 1103.62 0 00216 904.8c-1 2.9-2 5.7-2.9 8.6l-2.7 8.6c-1.8 5.8-3.7 11.5-5.4 17.3-3.3 11.6-6.8 23.1-9.7 34.9-3.2 11.6-5.7 23.4-8.5 35.2l-3.6 17.7c-.6 2.9-1.1 5.9-1.7 8.9l-1.6 8.9c-.1.8-.3 1.5-.4 2.3h-5.4c.1-1 .3-2.1.5-3.1l1.4-9c.5-3 .9-6 1.5-9l3.3-17.9c2.5-11.9 4.8-23.8 7.8-35.6 2.7-11.9 6-23.6 9.1-35.3 1.6-5.9 3.4-11.7 5.1-17.5l2.6-8.7c.8-2.9 1.9-5.8 2.8-8.7a1074.88 1074.88 0 0154.1-135.3 1218.56 1218.56 0 0171.2-127.2c52.6-81.8 114.7-157.2 181.9-227l12.6-13.1 6.3-6.6 3.1-3.3 3.2-3.2 25.6-25.8c4.3-4.3 8.5-8.6 12.8-12.9l13-12.7 25.9-25.4 26.2-25.1c8.7-8.4 17.5-16.8 26.3-25 17.7-16.5 35.3-33.1 53.2-49.4 18.8-17.3 37.6-34.3 56.4-51.3z" transform="translate(.3 .2)" fill="url(#al)"/><path d="M780 199.7v12.5c-7.3 6.7-14.6 13.5-21.8 20.2-17.8 16.4-35.2 33.1-52.8 49.7-8.8 8.3-17.4 16.7-26.1 25.1l-26 25.2-25.7 25.6-12.8 12.8c-4.3 4.2-8.4 8.6-12.7 12.9l-25.3 25.9-3.2 3.2-3.1 3.3-6.2 6.6-12.3 13.2-12.4 13.2c-2.1 2.2-4.1 4.4-6.1 6.7l-6.1 6.7-24.2 26.9-23.6 27.4-5.9 6.8-5.7 7-11.4 14-11.4 14-11 14.3c-7.3 9.6-14.7 19-21.7 28.9l-10.6 14.6-5.3 7.3c-1.8 2.4-3.4 5-5.1 7.4l-10.1 15-5.1 7.5c-1.7 2.5-3.4 5-5 7.5a1203.8 1203.8 0 00-71.8 125.3 1110.37 1110.37 0 00-55.6 133.4c-1 2.8-2 5.7-2.9 8.6l-2.7 8.6c-1.8 5.7-3.7 11.5-5.4 17.3-3.3 11.6-6.8 23.2-9.7 34.9-3.2 11.6-5.7 23.4-8.5 35.2l-3.6 17.7c-.3 1.6-.7 3.2-1 4.9h-5.7c.3-2 .6-3.9 1-5.9l3.3-17.9c2.5-11.9 4.8-23.8 7.8-35.6 2.7-11.9 6-23.6 9.1-35.3 1.6-5.9 3.4-11.7 5.2-17.5l2.6-8.7c.8-2.9 1.9-5.8 2.8-8.7a1074.88 1074.88 0 0154.1-135.3 1208.43 1208.43 0 0171.2-127.2c52.6-81.8 114.7-157.2 181.9-227l12.6-13.1 6.3-6.6 3.1-3.3 3.2-3.2 25.6-25.8c4.3-4.3 8.5-8.6 12.8-12.9l13-12.7 25.9-25.4 26.2-25.1c8.8-8.4 17.5-16.8 26.3-25 17.7-16.5 35.3-33.1 53.2-49.4 9.6-8.6 19-17.1 28.4-25.7z" transform="translate(.3 .2)" fill="url(#am)"/><path d="M780 240.5v12.8c-15.6 14.5-31.1 29.3-46.5 43.9-8.8 8.3-17.4 16.7-26.1 25.1l-26 25.2-25.7 25.6-12.8 12.8c-4.3 4.2-8.4 8.6-12.7 12.9l-25.3 25.9-3.2 3.2-3.1 3.3-6.2 6.6L580 451l-12.4 13.2c-2.1 2.2-4.1 4.4-6.1 6.7l-6.1 6.7-24.2 26.9-23.6 27.4-5.9 6.8-5.7 7-11.4 14-11.4 14-11 14.3c-7.3 9.6-14.7 19.1-21.7 28.9l-10.6 14.7-5.3 7.3c-1.8 2.4-3.4 5-5.1 7.5l-10.1 15-5.1 7.5c-1.7 2.5-3.4 5-5 7.5a1203.8 1203.8 0 00-71.8 125.3 1110.37 1110.37 0 00-55.6 133.4c-1 2.9-2 5.7-2.9 8.6l-2.7 8.6c-1.8 5.8-3.7 11.5-5.4 17.3-3.3 11.6-6.8 23.1-9.7 34.9-3.2 11.6-5.7 23.4-8.5 35.2l-1.5 7.4h-6.1l1.6-8.6c2.5-11.9 4.8-23.8 7.8-35.6 2.7-11.9 6-23.6 9.1-35.3 1.6-5.9 3.4-11.7 5.1-17.5l2.6-8.7c.8-2.9 1.9-5.8 2.8-8.7a1074.88 1074.88 0 0154.1-135.3 1218.56 1218.56 0 0171.2-127.2c52.6-81.8 114.7-157.2 181.9-227l18.8-19.7 3.1-3.3 3.2-3.2 25.6-25.8c4.3-4.3 8.5-8.6 12.8-12.9l13-12.7 25.9-25.4 26.2-25.1c8.7-8.4 17.5-16.7 26.3-25 17.7-16.5 35.3-33.1 53.2-49.4.5-.1.6-.1.6-.2z" transform="translate(.3 .2)" fill="url(#an)"/><path d="M780 284.7V298c-5.5 5.2-10.9 10.4-16.4 15.5-8.8 8.3-17.4 16.7-26.1 25.1l-26 25.2-25.7 25.6-12.8 12.8c-4.3 4.2-8.4 8.6-12.7 12.9l-25.3 26-3.2 3.2-3.1 3.3-6.2 6.6-12.4 13.2-12.4 13.2c-2.1 2.2-4.1 4.4-6.1 6.7l-6.1 6.7-24.2 26.9-23.6 27.4-5.9 6.8-5.7 7-11.4 14-11.4 14-11 14.3c-7.3 9.6-14.7 19-21.7 28.9L460.3 648l-5.3 7.3c-1.8 2.4-3.4 5-5.1 7.5l-10.1 15-5.1 7.5c-1.7 2.5-3.4 5-5 7.5a1203.8 1203.8 0 00-71.8 125.3 1110.37 1110.37 0 00-55.6 133.4c-1 2.9-2 5.7-2.9 8.6l-2.7 8.6c-1.8 5.8-3.7 11.5-5.4 17.3-3.3 11.6-6.8 23.1-9.7 34.9-2.4 8.7-4.4 17.4-6.4 26.2h-6.5c1.9-9.3 3.9-18.6 6.2-27.9 2.7-11.9 6-23.6 9.1-35.3 1.6-5.9 3.4-11.7 5.1-17.5l2.6-8.7c.8-2.9 1.9-5.8 2.8-8.7a1074.88 1074.88 0 0154.1-135.3 1218.56 1218.56 0 0171.2-127.2c52.6-81.8 114.7-157.2 181.9-227l18.8-19.7 3.1-3.3 3.2-3.2 25.6-25.8c4.3-4.3 8.5-8.6 12.8-12.9l13-12.7 25.9-25.4 26.2-25.1c8.7-8.4 17.5-16.8 26.3-25 7.9-7.2 15.7-14.5 23.4-21.7z" transform="translate(.3 .2)" fill="url(#ao)"/><path d="M780 326.1v13.8c-4.8 4.6-9.6 9.3-14.5 14l-26 25.2-25.7 25.6-12.8 12.8c-4.3 4.2-8.4 8.6-12.7 12.9L663 456.3l-3.2 3.2-3.1 3.3-6.2 6.6-12.4 13.2-12.4 13.2c-2.1 2.2-4.1 4.4-6.1 6.7l-6.1 6.7-24.2 26.9-23.6 27.4-5.9 6.8-5.7 7-11.4 14-11.4 14-11 14.3c-7.3 9.6-14.7 19-21.7 28.9L488 663.1l-5.3 7.3c-1.8 2.4-3.4 5-5.1 7.4l-10.1 15-5.1 7.5c-1.7 2.5-3.4 5-5 7.5a1203.8 1203.8 0 00-71.8 125.3A1110.37 1110.37 0 00330 966.5c-1 2.8-2 5.7-2.9 8.6l-2.7 8.6c-1.8 5.7-3.7 11.5-5.4 17.3-3.3 11.6-6.8 23.2-9.7 34.9-1 3.6-1.9 7.3-2.8 11H300c.9-4.2 1.9-8.5 3-12.7 2.7-11.9 6-23.6 9.1-35.3 1.6-5.9 3.4-11.7 5.2-17.5l2.6-8.7c.8-2.9 1.9-5.8 2.8-8.7a1074.88 1074.88 0 0154.1-135.3A1208.43 1208.43 0 01448 701.5c52.6-81.8 114.7-157.2 181.9-227l12.6-13.1 6.3-6.6 3.1-3.3 3.2-3.2 25.6-25.8c4.3-4.3 8.5-8.6 12.8-12.9l13-12.7 25.9-25.4 26.2-25.1c7.1-6.7 14.2-13.5 21.4-20.3z" transform="translate(.3 .2)" fill="url(#ap)"/><path d="M780 368v14.3l-12.4 12-25.7 25.6-12.8 12.8c-4.3 4.2-8.4 8.6-12.7 12.9l-25.3 25.9-3.2 3.2-3.1 3.3-6.2 6.6-12.4 13.2-12.3 13.2c-2.1 2.2-4.1 4.4-6.1 6.7l-6.1 6.7-24.2 26.9-23.6 27.4-5.9 6.8-5.7 7-11.4 14-11.4 14-11 14.3c-7.3 9.6-14.7 19.1-21.7 28.9l-10.6 14.7-5.3 7.3c-1.8 2.4-3.4 5-5.1 7.5l-10.1 15-5.1 7.5c-1.7 2.5-3.4 5-5 7.5a1203.8 1203.8 0 00-71.8 125.3 1110.37 1110.37 0 00-55.6 133.4c-1 2.9-2 5.7-2.9 8.6l-2.7 8.6c-1.8 5.8-3.7 11.5-5.4 17.3-2.9 10.2-5.9 20.4-8.6 30.6h-7.2c2.5-11 5.6-21.9 8.5-32.8 1.6-5.9 3.4-11.7 5.1-17.5l2.6-8.7c.8-2.9 1.9-5.8 2.8-8.7A1074.88 1074.88 0 01404.5 844a1218.56 1218.56 0 0171.2-127.2c52.6-81.8 114.7-157.2 181.9-227l18.8-19.7 3.1-3.3 3.2-3.2 25.6-25.8c4.3-4.3 8.5-8.6 12.8-12.9l13-12.7 25.9-25.4z" transform="translate(.3 .2)" fill="url(#aq)"/><path d="M780 410.3v14.8l-10 10-12.8 12.8c-4.3 4.2-8.4 8.6-12.7 12.9l-25.3 25.9-3.2 3.3-3.1 3.3-6.2 6.6-12.4 13.2-12.4 13.2c-2.1 2.2-4.1 4.4-6.1 6.7l-6.1 6.7-24.2 26.9-23.5 27.3-5.9 6.8-5.7 7-11.4 14-11.4 14-11 14.3c-7.3 9.6-14.7 19-21.7 28.9l-10.6 14.6-5.3 7.3c-1.8 2.4-3.4 5-5.1 7.4l-10.1 15-5.1 7.5c-1.7 2.5-3.4 5-5 7.5a1203.8 1203.8 0 00-71.8 125.3 1110.37 1110.37 0 00-55.6 133.4c-1 2.8-2 5.7-2.9 8.6l-2.7 8.6c-1.8 5.7-3.7 11.5-5.4 17.3-1.5 5.1-3 10.3-4.4 15.4h-7.6c1.5-5.9 3.1-11.7 4.7-17.6s3.4-11.7 5.2-17.5l2.6-8.7c.8-2.9 1.9-5.8 2.8-8.7A1074.88 1074.88 0 01432.7 859a1208.43 1208.43 0 0171.2-127.2c52.6-81.8 114.7-157.2 181.9-227l12.6-13.1 6.3-6.6 3.1-3.3 3.2-3.2 25.6-25.8c4.3-4.3 8.5-8.6 12.8-12.9l13-12.7z" transform="translate(.3 .2)" fill="url(#ar)"/><path d="M780 452.9v15.4c-2.5 2.6-5 5.1-7.5 7.7l-25.2 26-3.2 3.2-3.1 3.3-6.2 6.6-12.4 13.2-12.4 13.2c-2.1 2.2-4.1 4.4-6.1 6.7l-6.1 6.7-24.2 26.9-23.6 27.3-5.9 6.8-5.7 7L627 637l-11.4 14-11 14.3c-7.3 9.6-14.7 19.1-21.7 28.9l-10.6 14.7-5.3 7.3c-1.8 2.4-3.4 5-5.1 7.4l-10.1 15-5.1 7.5c-1.7 2.5-3.4 5-5 7.5a1203.8 1203.8 0 00-71.8 125.3 1110.37 1110.37 0 00-55.6 133.4c-1 2.9-2 5.7-2.9 8.6l-2.7 8.6c-1.8 5.8-3.7 11.5-5.4 17.3 0 .1 0 .1-.1.2h-7.9l.6-2.4c1.6-5.8 3.4-11.7 5.1-17.5l2.6-8.7c.8-2.9 1.9-5.8 2.8-8.7a1074.88 1074.88 0 0154.1-135.3 1218.56 1218.56 0 0171.2-127.2c52.6-81.8 114.7-157.2 181.9-227l12.6-13.1 6.3-6.6 3.1-3.3 3.2-3.2 25.6-25.8c4.3-4.3 8.5-8.6 12.8-12.9z" transform="translate(.3 .2)" fill="url(#as)"/><path d="M780 496.3v16l-4.7 4.8-3.2 3.2-3.1 3.3-6.2 6.6-12.4 13.2-12.4 13.3c-2.1 2.2-4.1 4.4-6.1 6.7l-6.1 6.7-24.2 26.9-23.6 27.4-5.9 6.8-5.7 7-11.4 14-11.4 14-11 14.3c-7.3 9.6-14.7 19-21.7 28.9L600.3 724l-5.3 7.3c-1.8 2.4-3.4 5-5.1 7.4l-10.1 15-5.1 7.5c-1.7 2.5-3.4 5-5 7.5A1203.8 1203.8 0 00497.9 894a1110.37 1110.37 0 00-55.6 133.4c-1 2.8-2 5.7-2.9 8.6l-2.7 8.6c-.2.8-.5 1.5-.7 2.3h-8c.5-1.5.9-3.1 1.4-4.6l2.6-8.7c.8-2.9 1.9-5.8 2.8-8.7a1074.88 1074.88 0 0154.1-135.3 1208.43 1208.43 0 0171.2-127.2c52.6-81.8 114.7-157.2 181.9-227l12.6-13.1 6.3-6.6 3.1-3.3 3.2-3.2z" transform="translate(.3 .2)" fill="url(#at)"/><path d="M780 542v16.8l-.4.4-12.4 13.2c-2.1 2.2-4.1 4.4-6.1 6.7l-6.1 6.7-24.2 26.9-23.6 27.4-5.9 6.8-5.7 7-11.4 14-11.4 14-11 14.3c-7.3 9.6-14.7 19.1-21.7 28.9l-10.6 14.7-5.3 7.3c-1.8 2.4-3.4 5-5.1 7.4l-10.1 15-5.1 7.5c-1.7 2.5-3.4 5-5 7.5a1203.8 1203.8 0 00-71.8 125.3 1110.37 1110.37 0 00-55.6 133.4c-.4 1.2-.8 2.4-1.3 3.6h-8.6c.7-2.1 1.4-4.2 2-6.2a1074.88 1074.88 0 0154.1-135.3 1218.56 1218.56 0 0171.2-127.2c52.6-81.8 114.7-157.2 181.9-227z" transform="translate(.3 .2)" fill="url(#au)"/><path d="M780 586.8v17.7l-21.1 23.4-23.6 27.4-5.9 6.8-5.7 7-11.4 14-11.4 14-11 14.3c-7.3 9.6-14.7 19-21.7 28.9l-10.6 14.6-5.3 7.3c-1.8 2.4-3.4 5-5.1 7.4l-10.1 15-5.1 7.5c-1.7 2.5-3.4 5-5 7.5a1203.8 1203.8 0 00-71.8 125.3 1094.45 1094.45 0 00-51.5 121.8h-9a1088.56 1088.56 0 0151.2-126.4 1208.43 1208.43 0 0171.2-127.2c47.8-73.6 103.1-142.3 162.9-206.3z" transform="translate(.3 .2)" fill="url(#av)"/><path d="M780 632.7v18.4l-16.7 19.4-5.9 6.8-5.7 7-11.4 14-11.4 14-11 14.4c-7.3 9.6-14.7 19-21.7 28.9l-10.6 14.6-5.3 7.3c-1.8 2.4-3.4 5-5.1 7.4l-10.1 15-5.1 7.5c-1.7 2.5-3.4 5-5 7.5a1203.8 1203.8 0 00-71.8 125.3 1090.57 1090.57 0 00-46 106.6h-9.3a1088.4 1088.4 0 0146-111.2 1218.56 1218.56 0 0171.2-127.2c40.3-61.9 85.8-120.5 134.9-175.7z" transform="translate(.3 .2)" fill="url(#aw)"/><path d="M780 684v19l-9.5 11.7-11.4 14-11 14.3c-7.3 9.6-14.7 19.1-21.7 28.9l-10.6 14.6-5.3 7.3c-1.8 2.4-3.4 5-5.1 7.4l-10.1 15-5.1 7.5c-1.7 2.5-3.4 5-5 7.5a1203.8 1203.8 0 00-71.8 125.3q-21.9 44.25-39.8 90.2H564c11.9-32.2 25.3-63.9 40.1-94.8a1218.56 1218.56 0 0171.2-127.2A1449.44 1449.44 0 01780 684z" transform="translate(.3 .2)" fill="url(#ax)"/><path d="M780 733.6v19.8l-3.8 5c-7.3 9.6-14.7 19-21.7 28.9L744 801.9l-5.3 7.3c-1.8 2.4-3.4 5-5.1 7.4l-10.1 15-5.1 7.5c-1.7 2.5-3.4 5-5 7.5a1203.8 1203.8 0 00-71.8 125.3q-18.3 36.9-33.8 75h-10q15.6-40.5 34.4-79.6a1208.43 1208.43 0 0171.2-127.2q35.85-55.05 76.6-106.5z" transform="translate(.3 .2)" fill="url(#ay)"/><path d="M780 785.5V806l-8 11.1-5.3 7.3c-1.8 2.4-3.4 5-5.1 7.4l-10.1 15-5.1 7.5c-1.7 2.5-3.4 5-5 7.5a1203.8 1203.8 0 00-71.8 125.3c-9.8 19.6-18.9 39.6-27.5 59.8H632c8.8-21.8 18.3-43.2 28.4-64.4a1218.56 1218.56 0 0171.2-127.2q23.1-35.55 48.4-69.8z" transform="translate(.3 .2)" fill="url(#az)"/><path d="M780 840.1v21.3l-.4.6-5.1 7.5c-1.7 2.5-3.4 5-5 7.5a1203.8 1203.8 0 00-71.8 125.3q-11 22-20.9 44.6h-10.6q10.5-24.9 22.1-49.2a1208.43 1208.43 0 0171.2-127.2c6.8-10.1 13.6-20.3 20.5-30.4z" transform="translate(.3 .2)" fill="url(#aA)"/><path d="M780 898.1V920q-29.4 47.55-54.2 97.7c-4.8 9.7-9.5 19.5-14 29.4h-10.9c5-11.4 10.2-22.7 15.6-34a1190.2 1190.2 0 0163.5-115z" transform="translate(.3 .2)" fill="url(#aB)"/><path d="M780 960.4V983q-13.65 24.6-26.1 49.8c-2.3 4.7-4.6 9.4-6.9 14.2h-11.2c2.9-6.3 5.8-12.5 8.8-18.8q16.5-34.5 35.4-67.8z" transform="translate(.3 .2)" fill="url(#aC)"/><path d="M780 1023.5v23.5h-11.5c.7-1.5 1.4-3.1 2.2-4.6q4.5-9.45 9.3-18.9z" transform="translate(.3 .2)" fill="url(#aD)"/></g></svg>