<svg width="18" height="18" viewBox="0 0 18 18" fill="none" xmlns="http://www.w3.org/2000/svg">
<path d="M17.2706 4.50293C17.6547 4.11566 17.6547 3.49118 17.2706 3.10391L15.2877 1.10435C14.8991 0.712482 14.2655 0.712483 13.8769 1.10435L9.80326 5.21215C9.41465 5.60402 8.78112 5.60402 8.39251 5.21215L4.31884 1.10435C3.93023 0.712483 3.2967 0.712483 2.90809 1.10435L0.925146 3.10391C0.541093 3.49118 0.541093 4.11566 0.925147 4.50293L5.02216 8.63428C5.40622 9.02155 5.40622 9.64603 5.02217 10.0333L0.925147 14.1646C0.541094 14.5519 0.541093 15.1764 0.925146 15.5637L2.90809 17.5632C3.2967 17.9551 3.93023 17.9551 4.31884 17.5632L8.39251 13.4554C8.78112 13.0636 9.41465 13.0636 9.80326 13.4554L13.8769 17.5632C14.2655 17.9551 14.8991 17.9551 15.2877 17.5632L17.2706 15.5637C17.6547 15.1764 17.6547 14.5519 17.2706 14.1646L13.1736 10.0333C12.7896 9.64603 12.7896 9.02155 13.1736 8.63428L17.2706 4.50293Z" fill="#19398A"/>
</svg>
