<svg width="23" height="19" viewBox="0 0 23 19" fill="none" xmlns="http://www.w3.org/2000/svg">
<path d="M20.458 4.52113C20.4727 4.71852 20.4727 4.91478 20.4727 5.11105C20.4727 11.1173 15.8941 18.0384 7.52639 18.0384C4.94842 18.0384 2.55347 17.2928 0.538086 15.9979C0.904108 16.0397 1.25657 16.0543 1.63728 16.0543C3.7645 16.0543 5.72227 15.337 7.2869 14.1132C5.2862 14.0714 3.60973 12.763 3.03133 10.9628C3.31262 11.0045 3.59505 11.0327 3.89103 11.0327C4.29885 11.0327 4.70893 10.9763 5.08963 10.8782C3.00308 10.4564 1.44071 8.62797 1.44071 6.41946V6.36306C2.04736 6.70032 2.75116 6.91124 3.49676 6.93944C2.27104 6.12507 1.46783 4.73206 1.46783 3.15632C1.46783 2.31262 1.69264 1.53885 2.0869 0.864345C4.32709 3.61991 7.69472 5.42123 11.4702 5.61862C11.4001 5.28024 11.3572 4.92945 11.3572 4.57753C11.3572 2.0735 13.3861 0.0341797 15.9076 0.0341797C17.2181 0.0341797 18.4009 0.582359 19.2323 1.46892C20.2603 1.27153 21.2454 0.891415 22.1198 0.371434C21.782 1.42606 21.0624 2.31262 20.1191 2.87547C21.0353 2.77621 21.9233 2.52355 22.7389 2.17163C22.1198 3.07173 21.346 3.87369 20.458 4.52113Z" fill="white"/>
</svg>
