<svg width="19" height="19" viewBox="0 0 19 19" fill="none" xmlns="http://www.w3.org/2000/svg">
<path d="M17.3714 0.0341797H1.34262C0.788624 0.0341797 0.34082 0.482285 0.34082 1.03441V17.0382C0.34082 17.5903 0.788624 18.0384 1.34262 18.0384H17.3714C17.9254 18.0384 18.3732 17.5903 18.3732 17.0382V1.03441C18.3732 0.482285 17.9254 0.0341797 17.3714 0.0341797ZM5.68942 15.3748H3.01261V6.78276H5.68942V15.3748ZM4.35101 5.60948C3.49348 5.60948 2.80023 4.91532 2.80023 4.06112C2.80023 3.20692 3.49247 2.51276 4.35101 2.51276C5.20655 2.51276 5.9018 3.20592 5.9018 4.06112C5.9018 4.91632 5.20655 5.60948 4.35101 5.60948ZM15.7064 15.3748H13.0326V11.1968C13.0326 10.2006 13.0146 8.91926 11.6421 8.91926C10.2496 8.91926 10.0382 10.0055 10.0382 11.1268V15.3758H7.36642V6.78376H9.93102V7.95803H9.96809C10.3237 7.28288 11.1973 6.57071 12.4966 6.57071C15.2055 6.57071 15.7054 8.34912 15.7054 10.6637V15.3748H15.7064Z" fill="white"/>
</svg>
