<svg width="19" height="19" viewBox="0 0 19 19" fill="none" xmlns="http://www.w3.org/2000/svg">
<path d="M9.96588 4.39941C7.41236 4.39941 5.34375 6.46577 5.34375 9.01427C5.34375 11.5638 7.41236 13.6301 9.96588 13.6301C12.5174 13.6301 14.588 11.5638 14.588 9.01427C14.588 6.46577 12.5174 4.39941 9.96588 4.39941ZM9.96588 12.013C8.30719 12.013 6.96245 10.6703 6.96245 9.01527C6.96245 7.35919 8.30719 6.01756 9.96588 6.01756C11.6246 6.01756 12.9673 7.35919 12.9673 9.01527C12.9673 10.6703 11.6246 12.013 9.96588 12.013Z" fill="white"/>
<path d="M14.7731 5.30457C15.3683 5.30457 15.8508 4.82277 15.8508 4.22845C15.8508 3.63413 15.3683 3.15234 14.7731 3.15234C14.1778 3.15234 13.6953 3.63413 13.6953 4.22845C13.6953 4.82277 14.1778 5.30457 14.7731 5.30457Z" fill="white"/>
<path d="M18.5019 3.13471C18.033 1.92784 17.0782 0.973521 15.8694 0.507344C15.1706 0.244808 14.4317 0.104056 13.6839 0.0880844C12.7211 0.0461584 12.4162 0.0341797 9.97468 0.0341797C7.53321 0.0341797 7.22027 0.0341796 6.26548 0.0880844C5.51964 0.103058 4.7808 0.24381 4.08195 0.507344C2.8722 0.973521 1.91741 1.92784 1.44951 3.13471C1.18656 3.83347 1.04559 4.57017 1.0306 5.31685C0.987607 6.27716 0.974609 6.58162 0.974609 9.02031C0.974609 11.458 0.974609 11.7685 1.0306 12.7238C1.04559 13.4705 1.18656 14.2072 1.44951 14.9069C1.91841 16.1128 2.8732 17.0671 4.08294 17.5343C4.7788 17.8058 5.51764 17.9595 6.26748 17.9835C7.23027 18.0254 7.53521 18.0384 9.97668 18.0384C12.4182 18.0384 12.7311 18.0384 13.6859 17.9835C14.4327 17.9685 15.1716 17.8268 15.8714 17.5652C17.0802 17.0971 18.035 16.1437 18.5039 14.9369C18.7668 14.2381 18.9078 13.5014 18.9228 12.7547C18.9658 11.7944 18.9788 11.49 18.9788 9.05126C18.9788 6.61257 18.9788 6.30311 18.9228 5.3478C18.9098 4.59113 18.7698 3.84146 18.5019 3.13471ZM17.2841 12.6499C17.2771 13.2249 17.1731 13.7949 16.9732 14.3349C16.6683 15.1205 16.0474 15.7414 15.2616 16.0429C14.7267 16.2416 14.1628 16.3454 13.5919 16.3534C12.6421 16.3973 12.3742 16.4083 9.93869 16.4083C7.50121 16.4083 7.25227 16.4083 6.28447 16.3534C5.7156 16.3464 5.14972 16.2416 4.61583 16.0429C3.827 15.7424 3.20213 15.1215 2.8972 14.3349C2.70124 13.8019 2.59526 13.2379 2.58626 12.6689C2.54327 11.7205 2.53328 11.453 2.53328 9.02131C2.53328 6.58861 2.53328 6.34005 2.58626 5.37275C2.59326 4.79777 2.69724 4.22877 2.8972 3.68873C3.20213 2.90112 3.827 2.28121 4.61583 1.97974C5.14972 1.78209 5.7156 1.67728 6.28447 1.66929C7.23527 1.62637 7.50221 1.61439 9.93869 1.61439C12.3752 1.61439 12.6251 1.61439 13.5919 1.66929C14.1628 1.67628 14.7267 1.7811 15.2616 1.97974C16.0474 2.28221 16.6683 2.90311 16.9732 3.68873C17.1691 4.22179 17.2751 4.78579 17.2841 5.35479C17.3271 6.30411 17.3381 6.57064 17.3381 9.00334C17.3381 11.4351 17.3381 11.6966 17.2951 12.6509H17.2841V12.6499Z" fill="white"/>
</svg>
