<svg width="28" height="28" viewBox="0 0 28 28" fill="none" xmlns="http://www.w3.org/2000/svg">
<path d="M3.51599 1.39953L13.5816 11.4652L23.6058 1.44096C23.7815 1.25397 23.9931 1.10439 24.228 1.00118C24.4629 0.897971 24.7162 0.843261 24.9727 0.840332C25.522 0.840332 26.0488 1.05854 26.4372 1.44695C26.8257 1.83536 27.0439 2.36215 27.0439 2.91145C27.0487 3.16537 27.0016 3.4176 26.9054 3.65266C26.8093 3.88772 26.6661 4.10065 26.4847 4.27838L16.3569 14.3026L26.4847 24.4303C26.826 24.7643 27.0262 25.2165 27.0439 25.6937C27.0439 26.243 26.8257 26.7698 26.4372 27.1582C26.0488 27.5466 25.522 27.7648 24.9727 27.7648C24.7088 27.7758 24.4454 27.7317 24.1994 27.6355C23.9534 27.5392 23.7301 27.3928 23.5437 27.2056L13.5816 17.14L3.5367 27.1849C3.3617 27.3657 3.15264 27.51 2.92158 27.6095C2.69052 27.709 2.44204 27.7618 2.19047 27.7648C1.64118 27.7648 1.11438 27.5466 0.725971 27.1582C0.337562 26.7698 0.119356 26.243 0.119356 25.6937C0.114527 25.4398 0.161638 25.1876 0.257799 24.9525C0.35396 24.7174 0.497142 24.5045 0.678557 24.3268L10.8063 14.3026L0.678557 4.17483C0.337206 3.84088 0.137042 3.38866 0.119356 2.91145C0.119356 2.36215 0.337562 1.83536 0.725971 1.44695C1.11438 1.05854 1.64118 0.840332 2.19047 0.840332C2.68754 0.846545 3.1639 1.04744 3.51599 1.39953Z" fill="white" fill-opacity="0.9"/>
</svg>
