<svg width="18" height="19" viewBox="0 0 18 19" fill="none" xmlns="http://www.w3.org/2000/svg">
<path d="M17.5196 3.10052C17.0515 1.89366 16.0981 0.939341 14.8913 0.473164C14.1935 0.210628 13.4558 0.0698765 12.7091 0.0539047C11.7478 0.0119787 11.4434 0 9.00566 0C6.56797 0 6.25552 -1.00406e-07 5.3022 0.0539047C4.55752 0.0688783 3.81982 0.20963 3.12205 0.473164C1.91419 0.939341 0.960869 1.89366 0.493694 3.10052C0.231157 3.79929 0.0904061 4.53599 0.0754325 5.28267C0.0325083 6.24297 0.0195312 6.54744 0.0195312 8.98613C0.0195312 11.4238 0.0195312 11.7343 0.0754325 12.6896C0.0904061 13.4363 0.231157 14.173 0.493694 14.8727C0.961867 16.0786 1.91518 17.0329 3.12305 17.5001C3.81782 17.7716 4.55552 17.9253 5.3042 17.9493C6.2655 17.9912 6.56996 18.0042 9.00766 18.0042C11.4454 18.0042 11.7578 18.0042 12.7111 17.9493C13.4568 17.9343 14.1945 17.7926 14.8933 17.531C16.1001 17.0629 17.0534 16.1095 17.5216 14.9027C17.7842 14.2039 17.9249 13.4672 17.9399 12.7205C17.9828 11.7602 17.9958 11.4558 17.9958 9.01707C17.9958 6.57838 17.9958 6.26893 17.9399 5.31362C17.9269 4.55695 17.7872 3.80728 17.5196 3.10052ZM16.3038 12.6157C16.2968 13.1907 16.193 13.7607 15.9933 14.3007C15.6889 15.0864 15.069 15.7073 14.2843 16.0087C13.7503 16.2074 13.1873 16.3112 12.6173 16.3192C11.669 16.3631 11.4014 16.3741 8.96972 16.3741C6.53602 16.3741 6.28746 16.3741 5.32117 16.3192C4.75317 16.3122 4.18817 16.2074 3.65511 16.0087C2.8675 15.7083 2.2436 15.0874 1.93914 14.3007C1.74349 13.7677 1.63767 13.2037 1.62869 12.6347C1.58576 11.6864 1.57578 11.4188 1.57578 8.98713C1.57578 6.55442 1.57578 6.30586 1.62869 5.33857C1.63568 4.76359 1.73949 4.19459 1.93914 3.65455C2.2436 2.86694 2.8675 2.24703 3.65511 1.94556C4.18817 1.74791 4.75317 1.6431 5.32117 1.63511C6.27049 1.59219 6.53702 1.58021 8.96972 1.58021C11.4024 1.58021 11.652 1.58021 12.6173 1.63511C13.1873 1.6421 13.7503 1.74691 14.2843 1.94556C15.069 2.24803 15.6889 2.86893 15.9933 3.65455C16.189 4.1876 16.2948 4.75161 16.3038 5.3206C16.3467 6.26993 16.3577 6.53646 16.3577 8.96916C16.3577 11.4009 16.3577 11.6624 16.3148 12.6167H16.3038V12.6157Z" fill="#18184A"/>
</svg>
