<svg width="19" height="19" viewBox="0 0 19 19" fill="none" xmlns="http://www.w3.org/2000/svg">
<path d="M18.129 3.28949C17.6608 2.08262 16.7075 1.12831 15.5006 0.662129C14.8029 0.399593 14.0652 0.258841 13.3185 0.24287C12.3572 0.200944 12.0527 0.188965 9.61504 0.188965C7.17734 0.188965 6.86489 0.188965 5.91158 0.24287C5.16689 0.257843 4.42919 0.398595 3.73143 0.662129C2.52356 1.12831 1.57024 2.08262 1.10307 3.28949C0.840532 3.98825 0.699781 4.72495 0.684808 5.47163C0.641883 6.43194 0.628906 6.7364 0.628906 9.17509C0.628906 11.6128 0.628906 11.9232 0.684808 12.8786C0.699781 13.6252 0.840532 14.3619 1.10307 15.0617C1.57124 16.2676 2.52456 17.2219 3.73242 17.6891C4.4272 17.9606 5.1649 18.1143 5.91357 18.1383C6.87488 18.1802 7.17934 18.1932 9.61703 18.1932C12.0547 18.1932 12.3672 18.1932 13.3205 18.1383C14.0662 18.1233 14.8039 17.9815 15.5026 17.72C16.7095 17.2518 17.6628 16.2985 18.131 15.0916C18.3935 14.3929 18.5343 13.6562 18.5493 12.9095C18.5922 11.9492 18.6052 11.6447 18.6052 9.20604C18.6052 6.76735 18.6052 6.45789 18.5493 5.50258C18.5363 4.74592 18.3965 3.99624 18.129 3.28949ZM16.9131 12.8047C16.9062 13.3797 16.8023 13.9497 16.6027 14.4897C16.2982 15.2753 15.6783 15.8962 14.8937 16.1977C14.3597 16.3963 13.7967 16.5002 13.2267 16.5081C12.2783 16.5521 12.0108 16.563 9.5791 16.563C7.1454 16.563 6.89684 16.563 5.93054 16.5081C5.36255 16.5012 4.79754 16.3963 4.26449 16.1977C3.47688 15.8972 2.85298 15.2763 2.54852 14.4897C2.35286 13.9566 2.24705 13.3926 2.23806 12.8237C2.19514 11.8753 2.18516 11.6078 2.18516 9.17609C2.18516 6.74339 2.18516 6.49483 2.23806 5.52754C2.24505 4.95255 2.34887 4.38356 2.54852 3.84351C2.85298 3.0559 3.47688 2.436 4.26449 2.13453C4.79754 1.93688 5.36255 1.83206 5.93054 1.82408C6.87987 1.78115 7.1464 1.76917 9.5791 1.76917C12.0118 1.76917 12.2614 1.76917 13.2267 1.82408C13.7967 1.83106 14.3597 1.93588 14.8937 2.13453C15.6783 2.43699 16.2982 3.0579 16.6027 3.84351C16.7983 4.37657 16.9042 4.94057 16.9131 5.50957C16.9561 6.45889 16.9671 6.72542 16.9671 9.15812C16.9671 11.5898 16.9671 11.8514 16.9241 12.8057H16.9131V12.8047Z" fill="white"/>
</svg>
