<svg width="19" height="19" viewBox="0 0 19 19" fill="none" xmlns="http://www.w3.org/2000/svg">
<path d="M17.2491 0.188965H1.24535C0.692222 0.188965 0.245117 0.637069 0.245117 1.1892V17.1929C0.245117 17.7451 0.692222 18.1932 1.24535 18.1932H17.2491C17.8022 18.1932 18.2493 17.7451 18.2493 17.1929V1.1892C18.2493 0.637069 17.8022 0.188965 17.2491 0.188965ZM5.58536 15.5295H2.91274V6.93754H5.58536V15.5295ZM4.24905 5.76427C3.39285 5.76427 2.70069 5.0701 2.70069 4.2159C2.70069 3.36171 3.39185 2.66754 4.24905 2.66754C5.10325 2.66754 5.79741 3.3607 5.79741 4.2159C5.79741 5.0711 5.10325 5.76427 4.24905 5.76427ZM15.5867 15.5295H12.9171V11.3516C12.9171 10.3553 12.8991 9.07404 11.5288 9.07404C10.1384 9.07404 9.92738 10.1603 9.92738 11.2816V15.5305H7.25975V6.93854H9.82035V8.11281H9.85736C10.2124 7.43766 11.0846 6.72549 12.3819 6.72549C15.0866 6.72549 15.5857 8.50391 15.5857 10.8184V15.5295H15.5867Z" fill="white"/>
</svg>
