<svg width="19" height="19" viewBox="0 0 19 19" fill="none" xmlns="http://www.w3.org/2000/svg">
<path d="M17.6407 0H1.63695C1.08382 0 0.636719 0.448105 0.636719 1.00023V17.004C0.636719 17.5561 1.08382 18.0042 1.63695 18.0042H17.6407C18.1938 18.0042 18.6409 17.5561 18.6409 17.004V1.00023C18.6409 0.448105 18.1938 0 17.6407 0ZM5.97696 15.3406H3.30434V6.74857H5.97696V15.3406ZM4.64065 5.5753C3.78445 5.5753 3.09229 4.88114 3.09229 4.02694C3.09229 3.17274 3.78345 2.47858 4.64065 2.47858C5.49485 2.47858 6.18901 3.17174 6.18901 4.02694C6.18901 4.88214 5.49485 5.5753 4.64065 5.5753ZM15.9783 15.3406H13.3087V11.1626C13.3087 10.1664 13.2907 8.88507 11.9204 8.88507C10.53 8.88507 10.319 9.97133 10.319 11.0926V15.3416H7.65136V6.74958H10.212V7.92385H10.249C10.604 7.24869 11.4762 6.53653 12.7736 6.53653C15.4782 6.53653 15.9773 8.31494 15.9773 10.6295V15.3406H15.9783Z" fill="#18184A"/>
</svg>
