<svg width="23" height="19" viewBox="0 0 23 19" fill="none" xmlns="http://www.w3.org/2000/svg">
<path d="M20.4476 4.67592C20.4622 4.87331 20.4622 5.06957 20.4622 5.26583C20.4622 11.2721 15.8907 18.1932 7.53604 18.1932C4.96208 18.1932 2.57084 17.4476 0.558594 16.1527C0.924047 16.1945 1.27596 16.2091 1.65608 16.2091C3.77999 16.2091 5.73472 15.4917 7.29692 14.2679C5.29933 14.2262 3.62547 12.9178 3.04796 11.1176C3.32882 11.1593 3.6108 11.1875 3.90632 11.1875C4.31351 11.1875 4.72295 11.1311 5.10307 11.033C3.01976 10.6111 1.45982 8.78275 1.45982 6.57424V6.51784C2.06552 6.8551 2.76823 7.06602 3.51267 7.09422C2.28886 6.27985 1.48689 4.88684 1.48689 3.31111C1.48689 2.46741 1.71135 1.69364 2.105 1.01913C4.34171 3.77469 7.7041 5.57601 11.4737 5.7734C11.4038 5.43502 11.3609 5.08423 11.3609 4.73231C11.3609 2.22828 13.3867 0.188965 15.9042 0.188965C17.2126 0.188965 18.3936 0.737144 19.2238 1.62371C20.2502 1.42632 21.2338 1.0462 22.1068 0.526219C21.7695 1.58084 21.051 2.46741 20.1092 3.03025C21.024 2.93099 21.9105 2.67833 22.7249 2.32641C22.1068 3.22651 21.3341 4.02848 20.4476 4.67592Z" fill="white"/>
</svg>
